<svg width="28" height="28" viewBox="0 0 28 28" fill="none" xmlns="http://www.w3.org/2000/svg">
<path fill-rule="evenodd" clip-rule="evenodd" d="M6.01006 6.01017C6.2726 5.74771 6.62863 5.60027 6.99986 5.60027C7.37109 5.60027 7.72712 5.74771 7.98966 6.01017L13.9999 12.0204L20.0101 6.01017C20.1392 5.87645 20.2937 5.7698 20.4645 5.69643C20.6353 5.62305 20.819 5.58443 21.0049 5.58282C21.1908 5.5812 21.3751 5.61662 21.5472 5.68702C21.7192 5.75741 21.8756 5.86136 22.007 5.99281C22.1385 6.12426 22.2424 6.28058 22.3128 6.45263C22.3832 6.62469 22.4186 6.80904 22.417 6.99493C22.4154 7.18082 22.3768 7.36453 22.3034 7.53533C22.23 7.70614 22.1234 7.86062 21.9897 7.98977L15.9795 14L21.9897 20.0102C22.2447 20.2742 22.3858 20.6279 22.3826 20.9949C22.3794 21.362 22.2322 21.7131 21.9726 21.9727C21.713 22.2323 21.3619 22.3795 20.9948 22.3827C20.6277 22.3859 20.2741 22.2448 20.0101 21.9898L13.9999 15.9796L7.98966 21.9898C7.72562 22.2448 7.37197 22.3859 7.0049 22.3827C6.63782 22.3795 6.28669 22.2323 6.02711 21.9727C5.76754 21.7131 5.62031 21.362 5.61712 20.9949C5.61393 20.6279 5.75504 20.2742 6.01006 20.0102L12.0203 14L6.01006 7.98977C5.7476 7.72723 5.60016 7.3712 5.60016 6.99997C5.60016 6.62874 5.7476 6.27271 6.01006 6.01017Z" fill="#4B164C"/>
</svg>
