<svg width="12" height="12" viewBox="0 0 12 12" fill="none" xmlns="http://www.w3.org/2000/svg">
<g clip-path="url(#clip0_1009_2443)">
<rect opacity="0.01" width="12" height="12" fill="white"/>
<path d="M6.00004 11.4002C6.66279 11.4002 7.20005 10.863 7.20005 10.2002C7.20005 9.5375 6.66279 9.00024 6.00004 9.00024C5.3373 9.00024 4.80005 9.5375 4.80005 10.2002C4.80005 10.863 5.3373 11.4002 6.00004 11.4002Z" fill="#DD88CF"/>
<path fill-rule="evenodd" clip-rule="evenodd" d="M6.00016 9.29237C5.4988 9.29237 5.09236 9.69881 5.09236 10.2002C5.09236 10.7015 5.4988 11.108 6.00016 11.108C6.50152 11.108 6.90796 10.7015 6.90796 10.2002C6.90796 9.69881 6.50152 9.29237 6.00016 9.29237ZM4.5 10.2002C4.5 9.37177 5.17157 8.7002 6 8.7002C6.82842 8.7002 7.5 9.37177 7.5 10.2002C7.5 11.0286 6.82842 11.7002 6 11.7002C5.17157 11.7002 4.5 11.0286 4.5 10.2002Z" fill="white"/>
<path fill-rule="evenodd" clip-rule="evenodd" d="M5.69995 6.58545H6.29995V9.58545H5.69995V6.58545Z" fill="#DD88CF"/>
<path d="M6 6.90015C7.65684 6.90015 9 5.55702 9 3.90015C9 2.2433 7.65684 0.900146 6 0.900146C4.34315 0.900146 3 2.2433 3 3.90015C3 5.55702 4.34315 6.90015 6 6.90015Z" fill="#DD88CF"/>
<path d="M5.99997 4.80024C6.49701 4.80024 6.89998 4.39728 6.89998 3.90024C6.89998 3.40319 6.49701 3.00024 5.99997 3.00024C5.50292 3.00024 5.09998 3.40319 5.09998 3.90024C5.09998 4.39728 5.50292 4.80024 5.99997 4.80024Z" fill="white"/>
</g>
<defs>
<clipPath id="clip0_1009_2443">
<rect width="12" height="12" fill="white"/>
</clipPath>
</defs>
</svg>
