<svg width="180" height="180" viewBox="0 0 180 180" fill="none" xmlns="http://www.w3.org/2000/svg">
<g opacity="0.2">
<path d="M161.636 144.501L160.745 143.819C172.606 128.246 178.878 109.642 178.878 90.0103C178.878 59.5978 163.576 31.6183 137.944 15.1641L138.553 14.2202C164.51 30.8737 180 59.2098 180 90.0103C180 109.883 173.644 128.729 161.636 144.501Z" fill="white"/>
<path d="M90.0052 180C40.3776 180 0 139.625 0 90C0 40.3752 40.3776 0 90.0052 0V1.12211C40.9963 1.12211 1.13267 40.9939 1.13267 89.9895C1.13267 138.996 41.0068 178.857 90.0052 178.857C104.814 178.857 119.476 175.144 132.396 168.118L132.931 169.104C119.843 176.246 104.992 180 90.0052 180Z" fill="white"/>
<path d="M47.4148 159.278C23.1673 144.344 8.69434 118.441 8.69434 90H10.9492C10.9492 117.654 25.0236 142.834 48.5999 157.358L47.4148 159.278Z" fill="white"/>
<path d="M90.0057 171.317C81.0912 171.317 72.334 169.88 63.9648 167.059L64.6885 164.93C72.8269 167.678 81.3429 169.072 90.0162 169.072C130.74 169.072 164.563 138.566 168.663 98.1064L170.908 98.3372C166.671 139.929 131.894 171.317 90.0057 171.317Z" fill="white"/>
<path d="M168.055 77.3737C165.108 59.0318 155.69 42.221 141.521 30.0455C127.205 17.7337 108.904 10.9591 90.0055 10.9591C74.7459 10.9591 59.9373 15.3112 47.1738 23.5541C32.3023 33.1602 20.9546 47.6323 15.2179 64.3068L13.0889 63.5727C18.9829 46.4263 30.6557 31.5452 45.9468 21.6664C59.0773 13.1928 74.3054 8.71484 89.995 8.71484C109.439 8.71484 128.254 15.6887 142.979 28.3466C157.546 40.8682 167.237 58.1614 170.268 77.0276L168.055 77.3737Z" fill="white"/>
<path d="M90.0054 148.728C57.6195 148.728 31.2744 122.384 31.2744 90.0001C31.2744 76.8912 35.5009 64.4955 43.4821 54.1553L45.265 55.5291C37.588 65.4813 33.5293 77.3946 33.5293 90.0001C33.5293 121.136 58.8675 146.473 90.0054 146.473C95.5324 146.473 100.996 145.676 106.23 144.103L106.88 146.263C101.426 147.91 95.7422 148.728 90.0054 148.728Z" fill="white"/>
<path d="M129.67 133.311L128.149 131.654C139.801 120.979 146.482 105.804 146.482 90.0103C146.482 78.894 143.252 68.1343 137.148 58.8952L139.025 57.6577C145.381 67.2639 148.737 78.4536 148.737 90.0208C148.726 106.433 141.783 122.216 129.67 133.311Z" fill="white"/>
<path d="M125.139 45.7863C115.06 37.7637 102.905 33.5269 90.0049 33.5269C78.6887 33.5269 67.771 36.8618 58.4265 43.175L57.168 41.3083C66.8796 34.7434 78.2377 31.2827 90.0049 31.2827C103.429 31.2827 116.067 35.6873 126.544 44.035L125.139 45.7863Z" fill="white"/>
<path d="M90.0056 138.639C82.0979 138.639 74.2426 136.699 67.2998 133.028L67.8242 132.032C74.6097 135.619 82.2762 137.517 89.9951 137.517C111.317 137.517 130.152 123.181 135.805 102.647L136.886 102.952C131.117 123.968 111.83 138.639 90.0056 138.639Z" fill="white"/>
<path d="M55.617 124.408C46.4298 115.221 41.3643 103.004 41.3643 90.0106C41.3643 63.1952 63.1786 41.3716 90.0061 41.3716C116.823 41.3716 138.648 63.1952 138.648 90.0106H137.526C137.526 63.8139 116.215 42.5042 90.0166 42.5042C63.8184 42.5042 42.5074 63.8139 42.5074 90.0106C42.5074 102.7 47.4471 114.634 56.435 123.611L55.617 124.408Z" fill="white"/>
<path d="M90.005 120.255C73.3191 120.255 59.748 106.685 59.748 89.9998C59.748 73.3149 73.3191 59.7446 90.005 59.7446V61.9994C74.5671 61.9994 62.0029 74.5629 62.0029 89.9998C62.0029 105.437 74.5671 118 90.005 118C105.443 118 118.007 105.437 118.007 89.9998H120.262C120.251 106.685 106.68 120.255 90.005 120.255Z" fill="white"/>
<path d="M90.0061 105.038C81.7104 105.038 74.9668 98.2951 74.9668 89.9999H76.089C76.089 97.6659 82.3291 103.906 89.9956 103.906C97.6621 103.906 103.902 97.6659 103.902 89.9999C103.902 82.3338 97.6621 76.094 89.9956 76.094C85.7376 76.094 81.7733 78.0027 79.1094 81.3375L78.2284 80.6349C81.1021 77.0274 85.3915 74.9614 89.9956 74.9614C98.2914 74.9614 105.035 81.7046 105.035 89.9999C105.035 98.2951 98.2914 105.038 90.0061 105.038Z" fill="white"/>
</g>
</svg>
