<svg width="24" height="24" viewBox="0 0 24 24" fill="none" xmlns="http://www.w3.org/2000/svg">
<path fill-rule="evenodd" clip-rule="evenodd" d="M3.45953 5.42552C4.39434 4.55014 5.66206 4.05838 6.98389 4.05838C8.30572 4.05838 9.57343 4.55014 10.5082 5.42552L11.9688 6.7925L13.4294 5.42552C13.8893 4.97954 14.4393 4.62382 15.0475 4.3791C15.6557 4.13438 16.3098 4.00556 16.9717 4.00018C17.6336 3.99479 18.29 4.11293 18.9027 4.34772C19.5153 4.5825 20.0719 4.92922 20.5399 5.36765C21.008 5.80607 21.3781 6.32742 21.6288 6.90128C21.8794 7.47514 22.0056 8.09001 21.9998 8.71001C21.9941 9.33002 21.8565 9.94274 21.5953 10.5124C21.334 11.0821 20.9543 11.5974 20.4782 12.0281L11.9688 20L3.45953 12.0281C2.52499 11.1525 2 9.96498 2 8.72682C2 7.48865 2.52499 6.30117 3.45953 5.42552Z" fill="#4B164C"/>
<circle cx="19" cy="7" r="4.25" fill="#DD88CF" stroke="#FDF7FD" stroke-width="1.5"/>
</svg>
