<svg width="28" height="28" viewBox="0 0 28 28" fill="none" xmlns="http://www.w3.org/2000/svg">
<path fill-rule="evenodd" clip-rule="evenodd" d="M4.4409 7.24062C5.49106 6.19078 6.91518 5.60102 8.4001 5.60102C9.88502 5.60102 11.3091 6.19078 12.3593 7.24062L14.0001 8.88002L15.6409 7.24062C16.1575 6.70576 16.7754 6.27914 17.4586 5.98565C18.1419 5.69216 18.8767 5.53768 19.6203 5.53122C20.3638 5.52476 21.1012 5.66645 21.7894 5.94802C22.4777 6.22959 23.1029 6.64541 23.6287 7.17121C24.1545 7.69701 24.5703 8.32226 24.8519 9.01048C25.1335 9.6987 25.2752 10.4361 25.2687 11.1797C25.2622 11.9232 25.1078 12.6581 24.8143 13.3413C24.5208 14.0245 24.0942 14.6424 23.5593 15.159L14.0001 24.7196L4.4409 15.159C3.39107 14.1089 2.8013 12.6847 2.8013 11.1998C2.8013 9.7149 3.39107 8.29078 4.4409 7.24062Z" fill="white"/>
</svg>
