<svg width="25" height="24" viewBox="0 0 25 24" fill="none" xmlns="http://www.w3.org/2000/svg">
<path d="M21.5001 11.5C21.5035 12.8199 21.1952 14.1219 20.6001 15.3C19.8945 16.7118 18.8098 17.8992 17.4675 18.7293C16.1252 19.5594 14.5783 19.9994 13.0001 20C11.6802 20.0034 10.3782 19.6951 9.20011 19.1L3.50012 21L5.40012 15.3C4.80505 14.1219 4.49668 12.8199 4.50012 11.5C4.50073 9.92177 4.94073 8.37487 5.77084 7.03257C6.60094 5.69027 7.78837 4.60559 9.20011 3.90003C10.3782 3.30496 11.6802 2.99659 13.0001 3.00003H13.5001C15.5845 3.11502 17.5531 3.99479 19.0292 5.47088C20.5053 6.94698 21.3851 8.91567 21.5001 11V11.5Z" stroke="white" stroke-width="2" stroke-linecap="round" stroke-linejoin="round"/>
</svg>
