<svg width="24" height="24" viewBox="0 0 24 24" fill="none" xmlns="http://www.w3.org/2000/svg">
<path d="M21.3334 5.3335H2.66671C2.31309 5.3335 1.97395 5.47397 1.7239 5.72402C1.47385 5.97407 1.33337 6.31321 1.33337 6.66683V17.3335C1.33337 17.6871 1.47385 18.0263 1.7239 18.2763C1.97395 18.5264 2.31309 18.6668 2.66671 18.6668H21.3334C21.687 18.6668 22.0261 18.5264 22.2762 18.2763C22.5262 18.0263 22.6667 17.6871 22.6667 17.3335V6.66683C22.6667 6.31321 22.5262 5.97407 22.2762 5.72402C22.0261 5.47397 21.687 5.3335 21.3334 5.3335ZM21.3334 17.3335H2.66671V6.66683H21.3334V17.3335Z" fill="#4B164C"/>
<path d="M4.66663 8.6665H5.99996V9.99984H4.66663V8.6665Z" fill="#4B164C"/>
<path d="M7.33337 8.6665H8.66671V9.99984H7.33337V8.6665Z" fill="#4B164C"/>
<path d="M10 8.6665H11.3333V9.99984H10V8.6665Z" fill="#4B164C"/>
<path d="M12.6666 8.6665H14V9.99984H12.6666V8.6665Z" fill="#4B164C"/>
<path d="M15.3334 8.6665H16.6667V9.99984H15.3334V8.6665Z" fill="#4B164C"/>
<path d="M18 8.6665H19.3333V9.99984H18V8.6665Z" fill="#4B164C"/>
<path d="M4.66663 11.3335H5.99996V12.6668H4.66663V11.3335Z" fill="#4B164C"/>
<path d="M7.33337 11.3335H8.66671V12.6668H7.33337V11.3335Z" fill="#4B164C"/>
<path d="M10 11.3335H11.3333V12.6668H10V11.3335Z" fill="#4B164C"/>
<path d="M12.6666 11.3335H14V12.6668H12.6666V11.3335Z" fill="#4B164C"/>
<path d="M15.3334 11.3335H16.6667V12.6668H15.3334V11.3335Z" fill="#4B164C"/>
<path d="M18 11.3335H19.3333V12.6668H18V11.3335Z" fill="#4B164C"/>
<path d="M18 14.6665H19.2933V15.9998H18V14.6665Z" fill="#4B164C"/>
<path d="M4.66663 14.6665H5.99996V15.9998H4.66663V14.6665Z" fill="#4B164C"/>
<path d="M7.41992 14.6665H16.5866V15.9998H7.41992V14.6665Z" fill="#4B164C"/>
</svg>
