<svg width="307" height="600" viewBox="0 0 307 600" fill="none" xmlns="http://www.w3.org/2000/svg">
<path opacity="0.08" d="M599.999 283.334C600.114 327.329 589.835 370.73 569.999 410C546.48 457.058 510.324 496.639 465.581 524.309C420.838 551.98 369.274 566.646 316.666 566.667C272.671 566.781 229.27 556.502 190 536.667L0 600L63.3332 410C43.4976 370.73 33.2186 327.329 33.3333 283.334C33.3536 230.726 48.0203 179.162 75.6905 134.419C103.361 89.6758 142.942 53.5198 190 30.0009C229.27 10.1653 272.671 -0.113759 316.666 0.000949602H333.333C402.811 3.834 468.434 33.1596 517.637 82.3628C566.84 131.566 596.166 197.189 599.999 266.667V283.334Z" fill="white"/>
</svg>
