<svg width="16" height="16" viewBox="0 0 16 16" fill="none" xmlns="http://www.w3.org/2000/svg"><path fill-rule="evenodd" clip-rule="evenodd" d="M11.6266 4.1576C11.6533 4.20422 11.7 4.23751 11.76 4.23751C13.36 4.23751 14.6666 5.54273 14.6666 7.14095V11.0966C14.6666 12.6948 13.36 14 11.76 14H4.23998C2.63331 14 1.33331 12.6948 1.33331 11.0966V7.14095C1.33331 5.54273 2.63331 4.23751 4.23998 4.23751C4.29331 4.23751 4.34665 4.21088 4.36665 4.1576L4.40665 4.07769C4.42963 4.02932 4.45322 3.97963 4.47717 3.92919C4.64771 3.56996 4.8364 3.17253 4.95331 2.93896C5.25998 2.33962 5.77998 2.00666 6.42665 2H9.56665C10.2133 2.00666 10.74 2.33962 11.0466 2.93896C11.1516 3.14872 11.3116 3.48661 11.4658 3.81228C11.4976 3.87948 11.5292 3.94617 11.56 4.0111L11.6266 4.1576ZM11.14 6.71476C11.14 7.04773 11.4067 7.3141 11.74 7.3141C12.0733 7.3141 12.3467 7.04773 12.3467 6.71476C12.3467 6.3818 12.0733 6.10877 11.74 6.10877C11.4067 6.10877 11.14 6.3818 11.14 6.71476ZM6.84665 7.74695C7.15998 7.43396 7.56665 7.26748 7.99998 7.26748C8.43332 7.26748 8.83998 7.43396 9.14665 7.74029C9.45332 8.04661 9.61998 8.45283 9.61998 8.88568C9.61332 9.77802 8.89332 10.5039 7.99998 10.5039C7.56665 10.5039 7.15998 10.3374 6.85332 10.0311C6.54665 9.72475 6.37998 9.31853 6.37998 8.88568V8.87902C6.37332 8.45949 6.53998 8.05327 6.84665 7.74695ZM9.84665 10.737C9.37331 11.2098 8.71998 11.5028 7.99998 11.5028C7.29998 11.5028 6.64665 11.2297 6.14665 10.737C5.65331 10.2375 5.37998 9.58491 5.37998 8.88568C5.37331 8.19312 5.64665 7.54051 6.13998 7.04107C6.63998 6.54162 7.29998 6.26859 7.99998 6.26859C8.69998 6.26859 9.35998 6.54162 9.85331 7.03441C10.3466 7.53385 10.62 8.19312 10.62 8.88568C10.6133 9.61154 10.32 10.2642 9.84665 10.737Z" fill="white"/></svg>