<svg width="20" height="20" viewBox="0 0 20 20" fill="none" xmlns="http://www.w3.org/2000/svg"><path d="M17.8628 2.15149C17.446 1.72367 16.829 1.56428 16.2538 1.73206L2.83999 5.63277C2.23307 5.80139 1.8029 6.28541 1.68701 6.9003C1.56863 7.52609 1.98214 8.32049 2.52236 8.65268L6.71657 11.2305C7.14675 11.4948 7.70198 11.4285 8.05796 11.0695L12.8608 6.23676C13.1025 5.9851 13.5027 5.9851 13.7445 6.23676C13.9862 6.48003 13.9862 6.87429 13.7445 7.12595L8.93331 11.9595C8.5765 12.3177 8.50981 12.8755 8.77242 13.3084L11.3351 17.5446C11.6353 18.048 12.1521 18.3332 12.719 18.3332C12.7857 18.3332 12.8608 18.3332 12.9275 18.3248C13.5777 18.2409 14.0946 17.7963 14.2863 17.1672L18.263 3.7705C18.438 3.20007 18.2796 2.57931 17.8628 2.15149Z" fill="#4B164C"/></svg>