<svg width="31" height="31" viewBox="0 0 31 31" fill="none" xmlns="http://www.w3.org/2000/svg"><g clip-path="url(#clip0_42_2355)"><path d="M22.216 4.48682C21.4379 5.29552 20.5784 5.82176 19.7162 6.45837C18.2186 5.64681 16.6206 6.15337 15.3144 7.27012C14.0081 8.38687 13.5215 10.1319 14.1213 11.7121L14.466 12.6591C11.4216 13.8561 8.17538 13.4526 5.51136 11.6285C5.51136 11.6285 4.11302 20.1089 13.0908 20.6667C11.7478 22.4928 10.2696 23.9328 8.09817 24.6287C11.8523 25.196 15.4799 24.5406 18.1231 22.6068C21.1549 20.388 23.0162 16.8332 22.7001 12.6381C22.5977 11.3645 22.3208 10.111 21.8772 8.91277C21.7894 8.67766 22.3517 5.76725 22.2156 4.48588L22.216 4.48682Z" stroke="white" stroke-width="1.5" stroke-linecap="round" stroke-linejoin="round"/></g><defs><clipPath id="clip0_42_2355"><rect width="24" height="24" fill="white" transform="translate(0 8.27224) scale(1.00777) rotate(-20)"/></clipPath></defs></svg>