<svg width="26" height="20" viewBox="0 0 26 20" fill="none" xmlns="http://www.w3.org/2000/svg">
<mask id="mask0_30_378" style="mask-type:luminance" maskUnits="userSpaceOnUse" x="0" y="0" width="26" height="20">
<rect width="26" height="20" rx="2" fill="white"/>
</mask>
<g mask="url(#mask0_30_378)">
<path fill-rule="evenodd" clip-rule="evenodd" d="M6.5 0H26V20H6.5V0Z" fill="#EF0000"/>
<path fill-rule="evenodd" clip-rule="evenodd" d="M0 0H9.75V20H0V0Z" fill="#2F8D00"/>
<mask id="mask1_30_378" style="mask-type:luminance" maskUnits="userSpaceOnUse" x="3" y="3" width="13" height="14">
<path fill-rule="evenodd" clip-rule="evenodd" d="M9.67264 16.5062C6.211 16.5062 3.40479 13.5933 3.40479 10.0002C3.40479 6.40699 6.211 3.49414 9.67264 3.49414C13.1343 3.49414 15.9405 6.40699 15.9405 10.0002C15.9405 13.5933 13.1343 16.5062 9.67264 16.5062Z" fill="white"/>
</mask>
<g mask="url(#mask1_30_378)">
<path fill-rule="evenodd" clip-rule="evenodd" d="M9.28564 3.3335H10.0981V5.58249H9.28564V3.3335Z" fill="#FFE017"/>
<path fill-rule="evenodd" clip-rule="evenodd" d="M9.28564 14.5786H10.0981V16.667H9.28564V14.5786Z" fill="#FFE017"/>
<path d="M3.50536 10.3369L3.2782 9.73911C5.78491 8.71271 7.67687 8.05078 8.96061 7.75247C10.8441 7.3148 12.9136 6.99097 15.1692 6.78076L15.2246 7.42076C12.9948 7.62856 10.9519 7.94823 9.09585 8.37952C7.85032 8.66895 5.98464 9.32168 3.50536 10.3369Z" fill="#FFE017"/>
<path d="M15.5519 6.3869L15.3676 7.00032C13.473 6.38689 11.9298 6.12321 10.7435 6.20488L10.7025 5.56372C11.9762 5.47603 13.5907 5.75189 15.5519 6.3869Z" fill="#FFE017"/>
<path d="M16.2074 9.81677L15.8572 10.3466C14.8914 9.65891 13.7016 9.31347 12.2795 9.31347V8.6709C13.8212 8.6709 15.1332 9.0518 16.2074 9.81677Z" fill="#FFE017"/>
<path d="M15.6828 10.0088L15.8429 10.6295C13.7608 11.208 11.8059 11.5361 9.97825 11.6134C8.13797 11.6912 5.99308 11.3619 3.54175 10.6278L3.71333 10.0105C6.10509 10.7266 8.18561 11.0461 9.95305 10.9714C11.7331 10.8961 13.6431 10.5755 15.6828 10.0088Z" fill="#FFE017"/>
<path d="M15.4471 13.0301L14.4686 14.059C12.609 12.1535 10.9719 10.7911 9.56723 9.97242C8.13861 9.13979 6.27555 8.29431 3.98096 7.43939L4.45151 6.07861C6.81378 6.95874 8.74537 7.83532 10.2492 8.71176C11.777 9.60219 13.5062 11.0414 15.4471 13.0301Z" fill="#FFE017"/>
<path d="M4.43484 13.6127L4.06445 13.0979C4.11618 13.0578 4.20847 12.9909 4.33562 12.9062C4.54557 12.7663 4.77871 12.6267 5.02955 12.4961C5.72042 12.1367 6.41343 11.9123 7.07441 11.8917C7.10674 11.8906 7.13893 11.8901 7.17098 11.8901V12.5327C7.14516 12.5327 7.11917 12.5331 7.09301 12.5339C6.53598 12.5513 5.92428 12.7494 5.30694 13.0706C5.07684 13.1903 4.86245 13.3187 4.67003 13.447C4.60306 13.4916 4.5438 13.5328 4.49302 13.5696C4.46342 13.5911 4.44377 13.6058 4.43484 13.6127Z" fill="#FFE017"/><path d="M4.72241 13.8354L4.87831 13.2135C6.94215 13.771 8.53326 14.0488 9.64369 14.0488C10.75 14.0488 12.3966 13.7211 14.5728 13.0635L14.7458 13.6804C12.5181 14.3536 10.821 14.6913 9.64369 14.6913C8.47054 14.6913 6.83276 14.4054 4.72241 13.8354Z" fill="#FFE017"/><path d="M3.91821 8.07837L4.89896 7.05176L6.33491 8.52979L5.35416 9.5564L3.91821 8.07837Z" fill="#FFE017"/><path d="M12.0542 13.2067L12.7837 11.9751L15.0616 13.4288L14.3321 14.6604L12.0542 13.2067Z" fill="#FFE017"/>
</g>
<path fill-rule="evenodd" clip-rule="evenodd" d="M3.40479 10.0002C3.40479 13.5933 6.211 16.5062 9.67264 16.5062C13.1343 16.5062 15.9405 13.5933 15.9405 10.0002C15.9405 6.40699 13.1343 3.49414 9.67264 3.49414C6.211 3.49414 3.40479 6.40699 3.40479 10.0002ZM15.1666 10.0805C15.1666 13.1857 12.7414 15.703 9.74989 15.703C6.75835 15.703 4.33323 13.1857 4.33323 10.0805C4.33323 6.97528 6.75835 4.45801 9.74989 4.45801C12.7414 4.45801 15.1666 6.97528 15.1666 10.0805Z" fill="#F9E813"/>
<path d="M6.22095 5.9873V11.2046C6.55581 13.2696 7.68393 14.3022 9.60532 14.3022C11.5267 14.3022 12.6548 13.2696 12.9897 11.2046V5.9873H6.22095Z" fill="white"/>
<path d="M5.75671 5.50586H13.454V11.2453L13.4476 11.285C13.0758 13.5781 11.7576 14.7846 9.60538 14.7846C7.45315 14.7846 6.13498 13.5781 5.76315 11.285L5.75671 11.2453V5.50586Z" fill="#C51918"/><path d="M7.51746 7.25879H11.6935V10.9595C11.6935 10.9595 11.3836 12.8706 9.60547 12.8706C7.82735 12.8706 7.51746 10.9595 7.51746 10.9595V7.25879Z" fill="#F7FCFF"/><path fill-rule="evenodd" clip-rule="evenodd" d="M6.5 5.90381H7.08735V6.30542H6.5V5.90381Z" fill="#F9E813"/>
<path fill-rule="evenodd" clip-rule="evenodd" d="M6.19043 6.06445H7.27376V6.26526H6.19043V6.06445Z" fill="#060101"/>
<path fill-rule="evenodd" clip-rule="evenodd" d="M6.19043 6.2251H6.77778V6.4259H6.19043V6.2251Z" fill="#F9E813"/><path fill-rule="evenodd" clip-rule="evenodd" d="M6.80957 6.2251H7.39692V6.4259H6.80957V6.2251Z" fill="#F9E813"/><path fill-rule="evenodd" clip-rule="evenodd" d="M6.19043 6.70703H6.582V7.30944H6.19043V6.70703Z" fill="#F9E813"/>
<path fill-rule="evenodd" clip-rule="evenodd" d="M6.96423 6.70703H7.3558V7.30944H6.96423V6.70703Z" fill="#F9E813"/><path fill-rule="evenodd" clip-rule="evenodd" d="M6.65466 6.70703H6.85045V7.30944H6.65466V6.70703Z" fill="#F9E813"/><path fill-rule="evenodd" clip-rule="evenodd" d="M6.19043 6.54639H7.27376V6.74719H6.19043V6.54639Z" fill="#060101"/>
<path fill-rule="evenodd" clip-rule="evenodd" d="M6.19043 7.02832H7.27376V7.22912H6.19043V7.02832Z" fill="#060101"/><path fill-rule="evenodd" clip-rule="evenodd" d="M6.34509 6.38574H6.54088V6.58655H6.34509V6.38574Z" fill="#F9E813"/><path fill-rule="evenodd" clip-rule="evenodd" d="M6.96423 6.38574H7.16002V6.58655H6.96423V6.38574Z" fill="#F9E813"/>
<path fill-rule="evenodd" clip-rule="evenodd" d="M6.65466 6.2251H6.85045V6.6267H6.65466V6.2251Z" fill="#F9E813"/><path fill-rule="evenodd" clip-rule="evenodd" d="M9.44043 5.90381H10.0278V6.30542H9.44043V5.90381Z" fill="#F9E813"/><path fill-rule="evenodd" clip-rule="evenodd" d="M9.13086 6.06445H10.2142V6.26526H9.13086V6.06445Z" fill="#060101"/><path fill-rule="evenodd" clip-rule="evenodd" d="M9.13086 6.2251H9.71821V6.4259H9.13086V6.2251Z" fill="#F9E813"/>
<path fill-rule="evenodd" clip-rule="evenodd" d="M9.75 6.2251H10.3373V6.4259H9.75V6.2251Z" fill="#F9E813"/><path fill-rule="evenodd" clip-rule="evenodd" d="M9.13086 6.70703H9.52243V7.30944H9.13086V6.70703Z" fill="#F9E813"/><path fill-rule="evenodd" clip-rule="evenodd" d="M9.90479 6.70703H10.2964V7.30944H9.90479V6.70703Z" fill="#F9E813"/>
<path fill-rule="evenodd" clip-rule="evenodd" d="M9.59521 6.70703H9.791V7.30944H9.59521V6.70703Z" fill="#F9E813"/><path fill-rule="evenodd" clip-rule="evenodd" d="M9.13086 6.54639H10.2142V6.74719H9.13086V6.54639Z" fill="#060101"/><path fill-rule="evenodd" clip-rule="evenodd" d="M9.13086 7.02832H10.2142V7.22912H9.13086V7.02832Z" fill="#060101"/>
<path fill-rule="evenodd" clip-rule="evenodd" d="M9.28564 6.38574H9.48143V6.58655H9.28564V6.38574Z" fill="#F9E813"/>
<path fill-rule="evenodd" clip-rule="evenodd" d="M9.90479 6.38574H10.1006V6.58655H9.90479V6.38574Z" fill="#F9E813"/><path fill-rule="evenodd" clip-rule="evenodd" d="M9.59521 6.2251H9.791V6.6267H9.59521V6.2251Z" fill="#F9E813"/><path fill-rule="evenodd" clip-rule="evenodd" d="M12.2262 5.90381H12.8135V6.30542H12.2262V5.90381Z" fill="#F9E813"/>
<path fill-rule="evenodd" clip-rule="evenodd" d="M11.9166 6.06445H13V6.26526H11.9166V6.06445Z" fill="#060101"/><path fill-rule="evenodd" clip-rule="evenodd" d="M11.9166 6.2251H12.504V6.4259H11.9166V6.2251Z" fill="#F9E813"/><path fill-rule="evenodd" clip-rule="evenodd" d="M12.5358 6.2251H13.1231V6.4259H12.5358V6.2251Z" fill="#F9E813"/>
<path fill-rule="evenodd" clip-rule="evenodd" d="M11.9166 6.70703H12.3082V7.30944H11.9166V6.70703Z" fill="#F9E813"/>
<path fill-rule="evenodd" clip-rule="evenodd" d="M12.6904 6.70703H13.082V7.30944H12.6904V6.70703Z" fill="#F9E813"/>
<path fill-rule="evenodd" clip-rule="evenodd" d="M12.3809 6.70703H12.5766V7.30944H12.3809V6.70703Z" fill="#F9E813"/>
<path fill-rule="evenodd" clip-rule="evenodd" d="M11.9166 6.54639H13V6.74719H11.9166V6.54639Z" fill="#060101"/>
<path fill-rule="evenodd" clip-rule="evenodd" d="M11.9166 7.02832H13V7.22912H11.9166V7.02832Z" fill="#060101"/>
<path fill-rule="evenodd" clip-rule="evenodd" d="M12.0713 6.38574H12.2671V6.58655H12.0713V6.38574Z" fill="#F9E813"/><path fill-rule="evenodd" clip-rule="evenodd" d="M12.6904 6.38574H12.8862V6.58655H12.6904V6.38574Z" fill="#F9E813"/><path fill-rule="evenodd" clip-rule="evenodd" d="M12.3809 6.2251H12.5766V6.6267H12.3809V6.2251Z" fill="#F9E813"/>
<path fill-rule="evenodd" clip-rule="evenodd" d="M12.2262 8.79541H12.8135V9.19702H12.2262V8.79541Z" fill="#F9E813"/>
<path fill-rule="evenodd" clip-rule="evenodd" d="M11.9166 8.95605H13V9.15686H11.9166V8.95605Z" fill="#060101"/><path fill-rule="evenodd" clip-rule="evenodd" d="M11.9166 9.1167H12.504V9.3175H11.9166V9.1167Z" fill="#F9E813"/><path fill-rule="evenodd" clip-rule="evenodd" d="M12.5358 9.1167H13.1231V9.3175H12.5358V9.1167Z" fill="#F9E813"/>
<path fill-rule="evenodd" clip-rule="evenodd" d="M11.9166 9.59863H12.3082V10.201H11.9166V9.59863Z" fill="#F9E813"/><path fill-rule="evenodd" clip-rule="evenodd" d="M12.6904 9.59863H13.082V10.201H12.6904V9.59863Z" fill="#F9E813"/><path fill-rule="evenodd" clip-rule="evenodd" d="M12.3809 9.59863H12.5766V10.201H12.3809V9.59863Z" fill="#F9E813"/>
<path fill-rule="evenodd" clip-rule="evenodd" d="M11.9166 9.43799H13V9.63879H11.9166V9.43799Z" fill="#060101"/><path fill-rule="evenodd" clip-rule="evenodd" d="M11.9166 9.91992H13V10.1207H11.9166V9.91992Z" fill="#060101"/><path fill-rule="evenodd" clip-rule="evenodd" d="M12.0713 9.27734H12.2671V9.47815H12.0713V9.27734Z" fill="#F9E813"/>
<path fill-rule="evenodd" clip-rule="evenodd" d="M12.6904 9.27734H12.8862V9.47815H12.6904V9.27734Z" fill="#F9E813"/><path fill-rule="evenodd" clip-rule="evenodd" d="M12.3809 9.1167H12.5766V9.51831H12.3809V9.1167Z" fill="#F9E813"/><path fill-rule="evenodd" clip-rule="evenodd" d="M6.50012 8.79541H7.08747V9.19702H6.50012V8.79541Z" fill="#F9E813"/><path fill-rule="evenodd" clip-rule="evenodd" d="M6.19055 8.95605H7.27389V9.15686H6.19055V8.95605Z" fill="#060101"/>
<path fill-rule="evenodd" clip-rule="evenodd" d="M6.19055 9.1167H6.7779V9.3175H6.19055V9.1167Z" fill="#F9E813"/><path fill-rule="evenodd" clip-rule="evenodd" d="M6.80969 9.1167H7.39704V9.3175H6.80969V9.1167Z" fill="#F9E813"/><path fill-rule="evenodd" clip-rule="evenodd" d="M6.19055 9.59863H6.58212V10.201H6.19055V9.59863Z" fill="#F9E813"/>
<path fill-rule="evenodd" clip-rule="evenodd" d="M6.96436 9.59863H7.35592V10.201H6.96436V9.59863Z" fill="#F9E813"/>
<path fill-rule="evenodd" clip-rule="evenodd" d="M6.65479 9.59863H6.85057V10.201H6.65479V9.59863Z" fill="#F9E813"/><path fill-rule="evenodd" clip-rule="evenodd" d="M6.19055 9.43799H7.27389V9.63879H6.19055V9.43799Z" fill="#060101"/>
<path fill-rule="evenodd" clip-rule="evenodd" d="M6.19055 9.91992H7.27389V10.1207H6.19055V9.91992Z" fill="#060101"/>
<path fill-rule="evenodd" clip-rule="evenodd" d="M6.34521 9.27734H6.541V9.47815H6.34521V9.27734Z" fill="#F9E813"/><path fill-rule="evenodd" clip-rule="evenodd" d="M6.96436 9.27734H7.16014V9.47815H6.96436V9.27734Z" fill="#F9E813"/><path fill-rule="evenodd" clip-rule="evenodd" d="M6.65479 9.1167H6.85057V9.51831H6.65479V9.1167Z" fill="#F9E813"/>
<path fill-rule="evenodd" clip-rule="evenodd" d="M6.87683 12.4199L7.25437 11.9584L7.55433 12.2166L7.17679 12.6781L6.87683 12.4199Z" fill="#F9E813"/>
<path fill-rule="evenodd" clip-rule="evenodd" d="M6.79785 12.7666L7.4942 11.9154L7.64418 12.0445L6.94783 12.8957L6.79785 12.7666Z" fill="#060101"/>
<path fill-rule="evenodd" clip-rule="evenodd" d="M6.91772 12.8696L7.29527 12.4082L7.44524 12.5372L7.0677 12.9987L6.91772 12.8696Z" fill="#F9E813"/>
<path fill-rule="evenodd" clip-rule="evenodd" d="M7.31567 12.3833L7.69321 11.9218L7.84319 12.0509L7.46565 12.5124L7.31567 12.3833Z" fill="#F9E813"/>
<path fill-rule="evenodd" clip-rule="evenodd" d="M7.27771 13.1792L7.5294 12.8716L7.97934 13.2588L7.72765 13.5664L7.27771 13.1792Z" fill="#F9E813"/>
<path fill-rule="evenodd" clip-rule="evenodd" d="M7.77515 12.5713L8.02684 12.2636L8.47678 12.6509L8.22508 12.9585L7.77515 12.5713Z" fill="#F9E813"/>
<path fill-rule="evenodd" clip-rule="evenodd" d="M7.57629 12.8145L7.70214 12.6606L8.15208 13.0479L8.02623 13.2017L7.57629 12.8145Z" fill="#F9E813"/>
<path fill-rule="evenodd" clip-rule="evenodd" d="M7.15784 13.0762L7.85419 12.225L8.00417 12.3541L7.30782 13.2052L7.15784 13.0762Z" fill="#060101"/>
<path fill-rule="evenodd" clip-rule="evenodd" d="M7.5177 13.3857L8.21405 12.5346L8.36403 12.6637L7.66768 13.5148L7.5177 13.3857Z" fill="#060101"/>
<path fill-rule="evenodd" clip-rule="evenodd" d="M7.13721 12.8511L7.26305 12.6973L7.41303 12.8263L7.28719 12.9801L7.13721 12.8511Z" fill="#F9E813"/>
<path fill-rule="evenodd" clip-rule="evenodd" d="M7.53516 12.3647L7.661 12.2109L7.81098 12.34L7.68513 12.4938L7.53516 12.3647Z" fill="#F9E813"/><path fill-rule="evenodd" clip-rule="evenodd" d="M7.21619 12.5049L7.34203 12.3511L7.64199 12.6092L7.51614 12.763L7.21619 12.5049Z" fill="#F9E813"/><path fill-rule="evenodd" clip-rule="evenodd" d="M12.17 12.0552L12.5476 12.5166L12.2476 12.7748L11.8701 12.3133L12.17 12.0552Z" fill="#F9E813"/><path fill-rule="evenodd" clip-rule="evenodd" d="M11.8511 11.9155L12.5474 12.7667L12.3974 12.8958L11.7011 12.0446L11.8511 11.9155Z" fill="#060101"/><path fill-rule="evenodd" clip-rule="evenodd" d="M11.7311 12.0186L12.1086 12.48L11.9586 12.6091L11.5811 12.1476L11.7311 12.0186Z" fill="#F9E813"/><path fill-rule="evenodd" clip-rule="evenodd" d="M12.129 12.5049L12.5066 12.9664L12.3566 13.0954L11.979 12.634L12.129 12.5049Z" fill="#F9E813"/><path fill-rule="evenodd" clip-rule="evenodd" d="M11.371 12.3286L11.6227 12.6363L11.1727 13.0235L10.921 12.7158L11.371 12.3286Z" fill="#F9E813"/><path fill-rule="evenodd" clip-rule="evenodd" d="M11.8684 12.9365L12.1201 13.2442L11.6702 13.6314L11.4185 13.3237L11.8684 12.9365Z" fill="#F9E813"/><path fill-rule="evenodd" clip-rule="evenodd" d="M11.6696 12.6929L11.7954 12.8467L11.3455 13.2339L11.2196 13.0801L11.6696 12.6929Z" fill="#F9E813"/><path fill-rule="evenodd" clip-rule="evenodd" d="M11.4911 12.2251L12.1874 13.0763L12.0375 13.2053L11.3411 12.3542L11.4911 12.2251Z" fill="#060101"/><path fill-rule="evenodd" clip-rule="evenodd" d="M11.1311 12.5347L11.8275 13.3858L11.6775 13.5149L10.9811 12.6637L11.1311 12.5347Z" fill="#060101"/><path fill-rule="evenodd" clip-rule="evenodd" d="M11.7106 12.2432L11.8364 12.397L11.6864 12.5261L11.5606 12.3722L11.7106 12.2432Z" fill="#F9E813"/><path fill-rule="evenodd" clip-rule="evenodd" d="M12.1085 12.7295L12.2344 12.8833L12.0844 13.0124L11.9585 12.8586L12.1085 12.7295Z" fill="#F9E813"/><path fill-rule="evenodd" clip-rule="evenodd" d="M12.0295 12.3833L12.1554 12.5371L11.8554 12.7953L11.7296 12.6414L12.0295 12.3833Z" fill="#F9E813"/><path fill-rule="evenodd" clip-rule="evenodd" d="M10.2036 7.67041H9.13086V8.47164C9.13086 8.47164 9.21047 8.8854 9.66724 8.8854C10.124 8.8854 10.2036 8.47164 10.2036 8.47164V7.67041ZM9.59511 7.9917C9.59511 8.08042 9.52582 8.15234 9.44035 8.15234C9.35488 8.15234 9.28559 8.08042 9.28559 7.9917C9.28559 7.90298 9.35488 7.83105 9.44035 7.83105C9.52582 7.83105 9.59511 7.90298 9.59511 7.9917ZM9.44035 8.79492C9.52582 8.79492 9.59511 8.723 9.59511 8.63428C9.59511 8.54555 9.52582 8.47363 9.44035 8.47363C9.35488 8.47363 9.28559 8.54555 9.28559 8.63428C9.28559 8.723 9.35488 8.79492 9.44035 8.79492ZM10.0595 8.63428C10.0595 8.723 9.99023 8.79492 9.90476 8.79492C9.81929 8.79492 9.75 8.723 9.75 8.63428C9.75 8.54555 9.81929 8.47363 9.90476 8.47363C9.99023 8.47363 10.0595 8.54555 10.0595 8.63428ZM9.67256 8.47363C9.75803 8.47363 9.82732 8.40171 9.82732 8.31299C9.82732 8.22427 9.75803 8.15234 9.67256 8.15234C9.58708 8.15234 9.51779 8.22427 9.51779 8.31299C9.51779 8.40171 9.58708 8.47363 9.67256 8.47363ZM10.0595 7.9917C10.0595 8.08042 9.99023 8.15234 9.90476 8.15234C9.81929 8.15234 9.75 8.08042 9.75 7.9917C9.75 7.90298 9.81929 7.83105 9.90476 7.83105C9.99023 7.83105 10.0595 7.90298 10.0595 7.9917Z" fill="#013399"/><path fill-rule="evenodd" clip-rule="evenodd" d="M10.2036 9.4375H9.13086V10.2387C9.13086 10.2387 9.21047 10.6525 9.66724 10.6525C10.124 10.6525 10.2036 10.2387 10.2036 10.2387V9.4375ZM9.59511 9.75928C9.59511 9.848 9.52582 9.91992 9.44035 9.91992C9.35488 9.91992 9.28559 9.848 9.28559 9.75928C9.28559 9.67055 9.35488 9.59863 9.44035 9.59863C9.52582 9.59863 9.59511 9.67055 9.59511 9.75928ZM9.44035 10.562C9.52582 10.562 9.59511 10.4901 9.59511 10.4014C9.59511 10.3126 9.52582 10.2407 9.44035 10.2407C9.35488 10.2407 9.28559 10.3126 9.28559 10.4014C9.28559 10.4901 9.35488 10.562 9.44035 10.562ZM10.0595 10.4014C10.0595 10.4901 9.99023 10.562 9.90476 10.562C9.81929 10.562 9.75 10.4901 9.75 10.4014C9.75 10.3126 9.81929 10.2407 9.90476 10.2407C9.99023 10.2407 10.0595 10.3126 10.0595 10.4014ZM9.67256 10.2407C9.75803 10.2407 9.82732 10.1688 9.82732 10.0801C9.82732 9.99136 9.75803 9.91943 9.67256 9.91943C9.58708 9.91943 9.51779 9.99136 9.51779 10.0801C9.51779 10.1688 9.58708 10.2407 9.67256 10.2407ZM10.0595 9.75928C10.0595 9.848 9.99023 9.91992 9.90476 9.91992C9.81929 9.91992 9.75 9.848 9.75 9.75928C9.75 9.67055 9.81929 9.59863 9.90476 9.59863C9.99023 9.59863 10.0595 9.67055 10.0595 9.75928Z" fill="#013399"/><path fill-rule="evenodd" clip-rule="evenodd" d="M11.5965 9.4375H10.5237V10.2387C10.5237 10.2387 10.6033 10.6525 11.0601 10.6525C11.5168 10.6525 11.5965 10.2387 11.5965 10.2387V9.4375ZM10.988 9.75928C10.988 9.848 10.9187 9.91992 10.8332 9.91992C10.7478 9.91992 10.6785 9.848 10.6785 9.75928C10.6785 9.67055 10.7478 9.59863 10.8332 9.59863C10.9187 9.59863 10.988 9.67055 10.988 9.75928ZM10.8332 10.562C10.9187 10.562 10.988 10.4901 10.988 10.4014C10.988 10.3126 10.9187 10.2407 10.8332 10.2407C10.7478 10.2407 10.6785 10.3126 10.6785 10.4014C10.6785 10.4901 10.7478 10.562 10.8332 10.562ZM11.4523 10.4014C11.4523 10.4901 11.383 10.562 11.2975 10.562C11.212 10.562 11.1428 10.4901 11.1428 10.4014C11.1428 10.3126 11.212 10.2407 11.2975 10.2407C11.383 10.2407 11.4523 10.3126 11.4523 10.4014ZM11.0654 10.2407C11.1509 10.2407 11.2202 10.1688 11.2202 10.0801C11.2202 9.99136 11.1509 9.91943 11.0654 9.91943C10.98 9.91943 10.9107 9.99136 10.9107 10.0801C10.9107 10.1688 10.98 10.2407 11.0654 10.2407ZM11.4523 9.75928C11.4523 9.848 11.383 9.91992 11.2975 9.91992C11.212 9.91992 11.1428 9.848 11.1428 9.75928C11.1428 9.67055 11.212 9.59863 11.2975 9.59863C11.383 9.59863 11.4523 9.67055 11.4523 9.75928Z" fill="#013399"/><path fill-rule="evenodd" clip-rule="evenodd" d="M8.81093 9.4375H7.73816V10.2387C7.73816 10.2387 7.81777 10.6525 8.27454 10.6525C8.73132 10.6525 8.81093 10.2387 8.81093 10.2387V9.4375ZM8.20236 9.75928C8.20236 9.848 8.13307 9.91992 8.0476 9.91992C7.96212 9.91992 7.89283 9.848 7.89283 9.75928C7.89283 9.67055 7.96212 9.59863 8.0476 9.59863C8.13307 9.59863 8.20236 9.67055 8.20236 9.75928ZM8.0476 10.562C8.13307 10.562 8.20236 10.4901 8.20236 10.4014C8.20236 10.3126 8.13307 10.2407 8.0476 10.2407C7.96212 10.2407 7.89283 10.3126 7.89283 10.4014C7.89283 10.4901 7.96212 10.562 8.0476 10.562ZM8.66677 10.4014C8.66677 10.4901 8.59748 10.562 8.51201 10.562C8.42653 10.562 8.35725 10.4901 8.35725 10.4014C8.35725 10.3126 8.42653 10.2407 8.51201 10.2407C8.59748 10.2407 8.66677 10.3126 8.66677 10.4014ZM8.2798 10.2407C8.36527 10.2407 8.43456 10.1688 8.43456 10.0801C8.43456 9.99136 8.36527 9.91943 8.2798 9.91943C8.19433 9.91943 8.12504 9.99136 8.12504 10.0801C8.12504 10.1688 8.19433 10.2407 8.2798 10.2407ZM8.66677 9.75928C8.66677 9.848 8.59748 9.91992 8.51201 9.91992C8.42653 9.91992 8.35725 9.848 8.35725 9.75928C8.35725 9.67055 8.42653 9.59863 8.51201 9.59863C8.59748 9.59863 8.66677 9.67055 8.66677 9.75928Z" fill="#013399"/><path fill-rule="evenodd" clip-rule="evenodd" d="M10.2036 11.2051H9.13086V12.0063C9.13086 12.0063 9.21047 12.4201 9.66724 12.4201C10.124 12.4201 10.2036 12.0063 10.2036 12.0063V11.2051ZM9.59511 11.5264C9.59511 11.6151 9.52582 11.687 9.44035 11.687C9.35488 11.687 9.28559 11.6151 9.28559 11.5264C9.28559 11.4376 9.35488 11.3657 9.44035 11.3657C9.52582 11.3657 9.59511 11.4376 9.59511 11.5264ZM9.44035 12.3291C9.52582 12.3291 9.59511 12.2572 9.59511 12.1685C9.59511 12.0797 9.52582 12.0078 9.44035 12.0078C9.35488 12.0078 9.28559 12.0797 9.28559 12.1685C9.28559 12.2572 9.35488 12.3291 9.44035 12.3291ZM10.0595 12.1685C10.0595 12.2572 9.99023 12.3291 9.90476 12.3291C9.81929 12.3291 9.75 12.2572 9.75 12.1685C9.75 12.0797 9.81929 12.0078 9.90476 12.0078C9.99023 12.0078 10.0595 12.0797 10.0595 12.1685ZM9.67256 12.0078C9.75803 12.0078 9.82732 11.9359 9.82732 11.8472C9.82732 11.7584 9.75803 11.6865 9.67256 11.6865C9.58708 11.6865 9.51779 11.7584 9.51779 11.8472C9.51779 11.9359 9.58708 12.0078 9.67256 12.0078ZM10.0595 11.5264C10.0595 11.6151 9.99023 11.687 9.90476 11.687C9.81929 11.687 9.75 11.6151 9.75 11.5264C9.75 11.4376 9.81929 11.3657 9.90476 11.3657C9.99023 11.3657 10.0595 11.4376 10.0595 11.5264Z" fill="#013399"/></g></svg>