<svg width="28" height="28" viewBox="0 0 28 28" fill="none" xmlns="http://www.w3.org/2000/svg"><g clip-path="url(#clip0_0_460)"><g clip-path="url(#clip1_0_460)"><path d="M20.4871 24.5001C20.3005 24.5008 20.1165 24.4568 19.9505 24.3717L14.0005 21.2567L8.05046 24.3717C7.85725 24.4733 7.63941 24.5187 7.42171 24.5027C7.20401 24.4866 6.99518 24.4098 6.81896 24.281C6.64273 24.1522 6.50619 23.9765 6.42484 23.7739C6.34349 23.5713 6.32061 23.35 6.35879 23.1351L7.52546 16.5667L2.71879 11.9001C2.56882 11.7504 2.46244 11.5628 2.41105 11.3572C2.35967 11.1517 2.36522 10.936 2.42712 10.7334C2.49474 10.5261 2.61913 10.3418 2.78616 10.2016C2.9532 10.0614 3.1562 9.97077 3.37212 9.94008L10.0221 8.97174L12.9505 2.98674C13.046 2.78949 13.1951 2.62314 13.3809 2.50674C13.5666 2.39035 13.7813 2.32861 14.0005 2.32861C14.2196 2.32861 14.4344 2.39035 14.6201 2.50674C14.8058 2.62314 14.9549 2.78949 15.0505 2.98674L18.0138 8.96008L24.6638 9.92841C24.8797 9.9591 25.0827 10.0497 25.2498 10.1899C25.4168 10.3302 25.5412 10.5144 25.6088 10.7217C25.6707 10.9244 25.6762 11.14 25.6249 11.3456C25.5735 11.5511 25.4671 11.7388 25.3171 11.8884L20.5105 16.5551L21.6771 23.1234C21.7188 23.3421 21.697 23.5682 21.6143 23.7749C21.5316 23.9817 21.3915 24.1604 21.2105 24.2901C20.9992 24.4381 20.7448 24.512 20.4871 24.5001Z" fill="white"/></g></g><defs><clipPath id="clip0_0_460"><rect width="28" height="28" fill="white"/></clipPath><clipPath id="clip1_0_460"><rect width="28" height="28" fill="white"/></clipPath></defs></svg>