<svg width="31" height="31" viewBox="0 0 31 31" fill="none" xmlns="http://www.w3.org/2000/svg"><g clip-path="url(#clip0_42_2267)"><path d="M27.7239 11.3803C26.608 11.4996 25.6114 11.3503 24.5417 11.2838C23.9161 9.69946 22.3664 9.06032 20.6479 9.07618C18.9294 9.09203 17.435 10.116 16.8787 11.712L16.534 12.659C13.4325 11.6191 11.2051 9.22338 10.3368 6.11364C10.3368 6.11364 3.81453 11.7112 10.3333 17.9092C8.13077 18.4449 6.07287 18.5978 3.96205 17.7352C6.47325 20.5828 9.67345 22.4125 12.9413 22.6302C16.69 22.8793 20.4008 21.3526 22.8552 17.9358C23.5954 16.8943 24.1891 15.7561 24.6194 14.553C24.7033 14.3165 27.0048 12.4484 27.7242 11.3794L27.7239 11.3803Z" stroke="white" stroke-width="1.5" stroke-linecap="round" stroke-linejoin="round"/></g><defs><clipPath id="clip0_42_2267"><rect width="24" height="24" fill="white" transform="translate(8.27224) scale(1.00777) rotate(20)"/></clipPath></defs></svg>