<svg width="28" height="28" viewBox="0 0 28 28" fill="none" xmlns="http://www.w3.org/2000/svg"><g clip-path="url(#clip0_0_468)"><g clip-path="url(#clip1_0_468)"><path d="M20.487 24.5001C20.3004 24.5008 20.1164 24.4568 19.9503 24.3717L14.0003 21.2567L8.05033 24.3717C7.85713 24.4733 7.63929 24.5187 7.42159 24.5027C7.20389 24.4866 6.99506 24.4098 6.81883 24.281C6.64261 24.1522 6.50606 23.9765 6.42472 23.7739C6.34337 23.5713 6.32049 23.35 6.35867 23.1351L7.52533 16.5667L2.71867 11.9001C2.5687 11.7504 2.46232 11.5628 2.41093 11.3572C2.35955 11.1517 2.3651 10.936 2.427 10.7334C2.49462 10.5261 2.61901 10.3418 2.78604 10.2016C2.95308 10.0614 3.15608 9.97077 3.372 9.94008L10.022 8.97174L12.9503 2.98674C13.0459 2.78949 13.195 2.62314 13.3807 2.50674C13.5664 2.39035 13.7812 2.32861 14.0003 2.32861C14.2195 2.32861 14.4342 2.39035 14.6199 2.50674C14.8056 2.62314 14.9548 2.78949 15.0503 2.98674L18.0137 8.96008L24.6637 9.92841C24.8796 9.9591 25.0826 10.0497 25.2496 10.1899C25.4167 10.3302 25.541 10.5144 25.6087 10.7217C25.6706 10.9244 25.6761 11.14 25.6247 11.3456C25.5733 11.5511 25.467 11.7388 25.317 11.8884L20.5103 16.5551L21.677 23.1234C21.7187 23.3421 21.6968 23.5682 21.6142 23.7749C21.5315 23.9817 21.3913 24.1604 21.2103 24.2901C20.9991 24.4381 20.7447 24.512 20.487 24.5001Z" fill="white"/></g></g><defs><clipPath id="clip0_0_468"><rect width="28" height="28" fill="white"/></clipPath><clipPath id="clip1_0_468"><rect width="28" height="28" fill="white"/></clipPath></defs></svg>