<svg width="24" height="24" viewBox="0 0 24 24" fill="none" xmlns="http://www.w3.org/2000/svg"><path d="M18.9999 11C18.9999 12.8565 18.2624 14.637 16.9496 15.9497C15.6369 17.2625 13.8564 18 11.9999 18M11.9999 18C10.1434 18 8.36289 17.2625 7.05013 15.9497C5.73738 14.637 4.99988 12.8565 4.99988 11M11.9999 18V22M11.9999 22H7.99988M11.9999 22H15.9999M11.9999 14C11.2042 14 10.4412 13.6839 9.87856 13.1213C9.31595 12.5587 8.99988 11.7956 8.99988 11V5C8.99988 4.20435 9.31595 3.44129 9.87856 2.87868C10.4412 2.31607 11.2042 2 11.9999 2C12.7955 2 13.5586 2.31607 14.1212 2.87868C14.6838 3.44129 14.9999 4.20435 14.9999 5V11C14.9999 11.7956 14.6838 12.5587 14.1212 13.1213C13.5586 13.6839 12.7955 14 11.9999 14Z" stroke="white" stroke-width="2" stroke-linecap="round" stroke-linejoin="round"/></svg>