<svg width="26" height="20" viewBox="0 0 26 20" fill="none" xmlns="http://www.w3.org/2000/svg"><mask id="mask0_30_188" style="mask-type:luminance" maskUnits="userSpaceOnUse" x="0" y="0" width="26" height="20"><rect width="26" height="20" rx="2" fill="white"/></mask><g mask="url(#mask0_30_188)"><path fill-rule="evenodd" clip-rule="evenodd" d="M0 0H26V20H0V0Z" fill="#F7FCFF"/><path fill-rule="evenodd" clip-rule="evenodd" d="M0 12.2222V13.8888H26V12.2222H0Z" fill="#E31D1C"/><path fill-rule="evenodd" clip-rule="evenodd" d="M0 15.2778V16.9445H26V15.2778H0Z" fill="#E31D1C"/><path fill-rule="evenodd" clip-rule="evenodd" d="M0 6.11133V7.77799H26V6.11133H0Z" fill="#E31D1C"/><path fill-rule="evenodd" clip-rule="evenodd" d="M0 18.3335V20.0002H26V18.3335H0Z" fill="#E31D1C"/><path fill-rule="evenodd" clip-rule="evenodd" d="M0 9.1665V10.8332H26V9.1665H0Z" fill="#E31D1C"/><path fill-rule="evenodd" clip-rule="evenodd" d="M0 0V1.66667H26V0H0Z" fill="#E31D1C"/><path fill-rule="evenodd" clip-rule="evenodd" d="M0 3.05566V4.72233H26V3.05566H0Z" fill="#E31D1C"/><rect width="16.25" height="10.8333" fill="#2E42A5"/><path fill-rule="evenodd" clip-rule="evenodd" d="M1.39911 2.44868L0.809336 2.87275L1.00845 2.11808L0.484619 1.63982H1.16881L1.39829 1.02393L1.66737 1.63982H2.25062L1.79234 2.11808L1.96976 2.87275L1.39911 2.44868ZM4.64911 2.44868L4.05933 2.87275L4.25845 2.11808L3.73462 1.63982H4.41881L4.64829 1.02393L4.91736 1.63982H5.50062L5.04234 2.11808L5.21976 2.87275L4.64911 2.44868ZM7.30934 2.87275L7.89911 2.44868L8.46976 2.87275L8.29235 2.11808L8.75062 1.63982H8.16737L7.89829 1.02393L7.66882 1.63982H6.98462L7.50845 2.11808L7.30934 2.87275ZM11.1491 2.44868L10.5593 2.87275L10.7585 2.11808L10.2346 1.63982H10.9188L11.1483 1.02393L11.4174 1.63982H12.0006L11.5423 2.11808L11.7198 2.87275L11.1491 2.44868ZM0.809336 6.20608L1.39911 5.78201L1.96976 6.20608L1.79234 5.45141L2.25062 4.97315H1.66737L1.39829 4.35726L1.16881 4.97315H0.484619L1.00845 5.45141L0.809336 6.20608ZM4.64911 5.78201L4.05933 6.20608L4.25845 5.45141L3.73462 4.97315H4.41881L4.64829 4.35726L4.91736 4.97315H5.50062L5.04234 5.45141L5.21976 6.20608L4.64911 5.78201ZM7.30934 6.20608L7.89911 5.78201L8.46976 6.20608L8.29235 5.45141L8.75062 4.97315H8.16737L7.89829 4.35726L7.66882 4.97315H6.98462L7.50845 5.45141L7.30934 6.20608ZM11.1491 5.78201L10.5593 6.20608L10.7585 5.45141L10.2346 4.97315H10.9188L11.1483 4.35726L11.4174 4.97315H12.0006L11.5423 5.45141L11.7198 6.20608L11.1491 5.78201ZM0.809336 9.53942L1.39911 9.11534L1.96976 9.53942L1.79234 8.78474L2.25062 8.30648H1.66737L1.39829 7.69059L1.16881 8.30648H0.484619L1.00845 8.78474L0.809336 9.53942ZM4.64911 9.11534L4.05933 9.53942L4.25845 8.78474L3.73462 8.30648H4.41881L4.64829 7.69059L4.91736 8.30648H5.50062L5.04234 8.78474L5.21976 9.53942L4.64911 9.11534ZM7.30934 9.53942L7.89911 9.11534L8.46976 9.53942L8.29235 8.78474L8.75062 8.30648H8.16737L7.89829 7.69059L7.66882 8.30648H6.98462L7.50845 8.78474L7.30934 9.53942ZM11.1491 9.11534L10.5593 9.53942L10.7585 8.78474L10.2346 8.30648H10.9188L11.1483 7.69059L11.4174 8.30648H12.0006L11.5423 8.78474L11.7198 9.53942L11.1491 9.11534ZM13.8093 2.87275L14.3991 2.44868L14.9698 2.87275L14.7923 2.11808L15.2506 1.63982H14.6674L14.3983 1.02393L14.1688 1.63982H13.4846L14.0084 2.11808L13.8093 2.87275ZM14.3991 5.78201L13.8093 6.20608L14.0084 5.45141L13.4846 4.97315H14.1688L14.3983 4.35726L14.6674 4.97315H15.2506L14.7923 5.45141L14.9698 6.20608L14.3991 5.78201ZM13.8093 9.53942L14.3991 9.11534L14.9698 9.53942L14.7923 8.78474L15.2506 8.30648H14.6674L14.3983 7.69059L14.1688 8.30648H13.4846L14.0084 8.78474L13.8093 9.53942ZM3.02411 4.11534L2.43434 4.53942L2.63345 3.78474L2.10962 3.30648H2.79382L3.02329 2.69059L3.29237 3.30648H3.87562L3.41735 3.78474L3.59476 4.53942L3.02411 4.11534ZM5.68434 4.53942L6.27411 4.11534L6.84476 4.53942L6.66734 3.78474L7.12562 3.30648H6.54237L6.27329 2.69059L6.04382 3.30648H5.35962L5.88345 3.78474L5.68434 4.53942ZM9.52411 4.11534L8.93433 4.53942L9.13345 3.78474L8.60962 3.30648H9.29381L9.52329 2.69059L9.79236 3.30648H10.3756L9.91734 3.78474L10.0948 4.53942L9.52411 4.11534ZM2.43434 7.87275L3.02411 7.44868L3.59476 7.87275L3.41735 7.11808L3.87562 6.63982H3.29237L3.02329 6.02393L2.79382 6.63982H2.10962L2.63345 7.11808L2.43434 7.87275ZM6.27411 7.44868L5.68434 7.87275L5.88345 7.11808L5.35962 6.63982H6.04382L6.27329 6.02393L6.54237 6.63982H7.12562L6.66734 7.11808L6.84476 7.87275L6.27411 7.44868ZM8.93433 7.87275L9.52411 7.44868L10.0948 7.87275L9.91734 7.11808L10.3756 6.63982H9.79236L9.52329 6.02393L9.29381 6.63982H8.60962L9.13345 7.11808L8.93433 7.87275ZM12.7741 4.11534L12.1843 4.53942L12.3835 3.78474L11.8596 3.30648H12.5438L12.7733 2.69059L13.0424 3.30648H13.6256L13.1673 3.78474L13.3448 4.53942L12.7741 4.11534ZM12.1843 7.87275L12.7741 7.44868L13.3448 7.87275L13.1673 7.11808L13.6256 6.63982H13.0424L12.7733 6.02393L12.5438 6.63982H11.8596L12.3835 7.11808L12.1843 7.87275Z" fill="#F7FCFF"/></g></svg>