<svg width="20" height="20" viewBox="0 0 20 20" fill="none" xmlns="http://www.w3.org/2000/svg"><g clip-path="url(#clip0_50_4764)"><path d="M7.5 4.1665H5.83333C5.3731 4.1665 5 4.5396 5 4.99984V14.9998C5 15.4601 5.3731 15.8332 5.83333 15.8332H7.5C7.96024 15.8332 8.33333 15.4601 8.33333 14.9998V4.99984C8.33333 4.5396 7.96024 4.1665 7.5 4.1665Z" fill="white" stroke="white" stroke-width="1.5" stroke-linecap="round" stroke-linejoin="round"/><path d="M14.1666 4.1665H12.5C12.0397 4.1665 11.6666 4.5396 11.6666 4.99984V14.9998C11.6666 15.4601 12.0397 15.8332 12.5 15.8332H14.1666C14.6269 15.8332 15 15.4601 15 14.9998V4.99984C15 4.5396 14.6269 4.1665 14.1666 4.1665Z" fill="white" stroke="white" stroke-width="1.5" stroke-linecap="round" stroke-linejoin="round"/></g><defs><clipPath id="clip0_50_4764"><rect width="20" height="20" fill="white"/></clipPath></defs></svg>