<svg width="27" height="21" viewBox="0 0 27 21" fill="none" xmlns="http://www.w3.org/2000/svg"><mask id="mask0_30_548" style="mask-type:luminance" maskUnits="userSpaceOnUse" x="0" y="0" width="27" height="21"><rect x="0.5" y="0.5" width="26" height="20" rx="2" fill="white" stroke="white"/></mask><g mask="url(#mask0_30_548)"><path fill-rule="evenodd" clip-rule="evenodd" d="M2.5 0.5C1.39543 0.5 0.5 1.39543 0.5 2.5V18.5C0.5 19.6046 1.39543 20.5 2.5 20.5H24.5C25.6046 20.5 26.5 19.6046 26.5 18.5V2.5C26.5 1.39543 25.6046 0.5 24.5 0.5H2.5Z" fill="#3D58DB" stroke="black" stroke-opacity="0.04"/><mask id="mask1_30_548" style="mask-type:luminance" maskUnits="userSpaceOnUse" x="0" y="0" width="27" height="21"><path fill-rule="evenodd" clip-rule="evenodd" d="M0.5 0.5V20.5H26.5V0.5H0.5Z" fill="white" stroke="white"/></mask><g mask="url(#mask1_30_548)"><path fill-rule="evenodd" clip-rule="evenodd" d="M2.5 0.5C1.39543 0.5 0.5 1.39543 0.5 2.5V7.16667H26.5V2.5C26.5 1.39543 25.6046 0.5 24.5 0.5H2.5Z" fill="#F7FCFF" stroke="black" stroke-opacity="0.04"/><path fill-rule="evenodd" clip-rule="evenodd" d="M0.5 13.8335V18.5002C0.5 19.6047 1.39543 20.5002 2.5 20.5002H24.5C25.6046 20.5002 26.5 19.6047 26.5 18.5002V13.8335H0.5Z" fill="#C51918" stroke="black" stroke-opacity="0.04"/></g></g></svg>