<svg width="24" height="24" viewBox="0 0 24 24" fill="none" xmlns="http://www.w3.org/2000/svg"><path d="M21.0001 11.5C21.0035 12.8199 20.6952 14.1219 20.1001 15.3C19.3945 16.7118 18.3098 17.8992 16.9675 18.7293C15.6252 19.5594 14.0783 19.9994 12.5001 20C11.1802 20.0034 9.87823 19.6951 8.70011 19.1L3.00012 21L4.90012 15.3C4.30505 14.1219 3.99668 12.8199 4.00012 11.5C4.00073 9.92177 4.44073 8.37487 5.27084 7.03257C6.10094 5.69027 7.28837 4.60559 8.70011 3.90003C9.87823 3.30496 11.1802 2.99659 12.5001 3.00003H13.0001C15.0845 3.11502 17.0531 3.99479 18.5292 5.47088C20.0053 6.94698 20.8851 8.91567 21.0001 11V11.5Z" stroke="#4B164C" stroke-width="2" stroke-linecap="round" stroke-linejoin="round"/></svg>