<svg width="31" height="31" viewBox="0 0 31 31" fill="none" xmlns="http://www.w3.org/2000/svg"><g clip-path="url(#clip0_42_2262)"><path d="M22.0454 9.30276L14.4695 6.54535C12.3774 5.78391 10.0642 6.86257 9.30279 8.95461L6.54538 16.5305C5.78394 18.6226 6.8626 20.9358 8.95464 21.6972L16.5306 24.4546C18.6226 25.216 20.9358 24.1374 21.6972 22.0454L24.4546 14.4694C25.2161 12.3774 24.1374 10.0642 22.0454 9.30276Z" stroke="white" stroke-width="1.5" stroke-linecap="round" stroke-linejoin="round"/><path d="M14.466 18.341C16.035 18.912 17.7699 18.103 18.341 16.534C18.912 14.965 18.103 13.2301 16.534 12.659C14.965 12.0879 13.2301 12.8969 12.659 14.466C12.0879 16.035 12.8969 17.7699 14.466 18.341Z" stroke="white" stroke-width="1.5" stroke-linecap="round" stroke-linejoin="round"/><path d="M21.3125 12.7896L21.3121 12.7905" stroke="white" stroke-width="1.5" stroke-linecap="round" stroke-linejoin="round"/></g><defs><clipPath id="clip0_42_2262"><rect width="24" height="24" fill="white" transform="translate(8.27224) scale(1.00777) rotate(20)"/></clipPath></defs></svg>