<svg width="36" height="36" viewBox="0 0 36 36" fill="none" xmlns="http://www.w3.org/2000/svg"><g clip-path="url(#clip0_0_323)"><path fill-rule="evenodd" clip-rule="evenodd" d="M11.3083 8.34892C12.6584 7.71961 14.2032 7.65228 15.6029 8.16174C17.0026 8.6712 18.1427 9.71573 18.7724 11.0656L19.7566 13.1739L21.8658 12.1915C22.5362 11.8646 23.2651 11.6744 24.0098 11.6322C24.7545 11.5899 25.5002 11.6964 26.2033 11.9454C26.9064 12.1945 27.5529 12.581 28.105 13.0826C28.6571 13.5841 29.1039 14.1906 29.4191 14.8666C29.7343 15.5426 29.9118 16.2747 29.9411 17.02C29.9704 17.7653 29.8509 18.5091 29.5897 19.2077C29.3285 19.9064 28.9308 20.5461 28.4198 21.0894C27.9087 21.6328 27.2946 22.0689 26.6131 22.3723L14.3223 28.1047L8.59163 15.813C7.96232 14.4629 7.89499 12.9182 8.40445 11.5184C8.91391 10.1187 9.95844 8.97863 11.3083 8.34892Z" fill="white"/></g><defs><clipPath id="clip0_0_323"><rect width="28" height="28" fill="white" transform="translate(9.60644) scale(1.00312) rotate(20)"/></clipPath></defs></svg>