<svg width="24" height="24" viewBox="0 0 24 24" fill="none" xmlns="http://www.w3.org/2000/svg"><path d="M16.0001 7C16.0001 8.06087 15.5787 9.07828 14.8286 9.82843C14.0784 10.5786 13.061 11 12.0001 11C10.9393 11 9.92184 10.5786 9.1717 9.82843C8.42155 9.07828 8.00012 8.06087 8.00012 7C8.00012 5.93913 8.42155 4.92172 9.1717 4.17157C9.92184 3.42143 10.9393 3 12.0001 3C13.061 3 14.0784 3.42143 14.8286 4.17157C15.5787 4.92172 16.0001 5.93913 16.0001 7V7ZM12.0001 14C10.1436 14 8.36313 14.7375 7.05037 16.0503C5.73762 17.363 5.00012 19.1435 5.00012 21H19.0001C19.0001 19.1435 18.2626 17.363 16.9499 16.0503C15.6371 14.7375 13.8566 14 12.0001 14V14Z" stroke="#DD88CF" stroke-width="2" stroke-linecap="round" stroke-linejoin="round"/></svg>