<svg width="26" height="20" viewBox="0 0 26 20" fill="none" xmlns="http://www.w3.org/2000/svg"><mask id="mask0_30_240" style="mask-type:luminance" maskUnits="userSpaceOnUse" x="0" y="0" width="26" height="20">
<rect width="26" height="20" rx="2" fill="white"/>
</mask>
<g mask="url(#mask0_30_240)"><path fill-rule="evenodd" clip-rule="evenodd" d="M0 0V20H26V0H0Z" fill="#FFB400"/>
<mask id="mask1_30_240" style="mask-type:luminance" maskUnits="userSpaceOnUse" x="0" y="0" width="26" height="20"><path fill-rule="evenodd" clip-rule="evenodd" d="M0 0V20H26V0H0Z" fill="white"/>
</mask>
<g mask="url(#mask1_30_240)">
<path fill-rule="evenodd" clip-rule="evenodd" d="M0 0V5H26V0H0Z" fill="#C51918"/><path fill-rule="evenodd" clip-rule="evenodd" d="M0 15V20H26V15H0Z" fill="#C51918"/>
<rect x="4.06897" y="8.56006" width="0.91" height="4.85333" fill="#F1F9FF"/>
<path fill-rule="evenodd" clip-rule="evenodd" d="M5.34296 7.71973H3.70496V8.18639H3.97795V8.55969H5.06995V8.18639H5.34296V7.71973Z" fill="#C88A02"/>
<path fill-rule="evenodd" clip-rule="evenodd" d="M5.06996 13.6932H5.34296V14.1598H3.70496V13.6932H3.97796V13.3198H5.06996V13.6932Z" fill="#C88A02"/>
<path fill-rule="evenodd" clip-rule="evenodd" d="M4.52396 7.81329C4.722 7.81329 4.74212 7.73681 4.85896 7.62258C4.94968 7.53388 5.16096 7.42387 5.16096 7.29995C5.16096 7.01645 4.87577 6.78662 4.52396 6.78662C4.17216 6.78662 3.88696 7.01645 3.88696 7.29995C3.88696 7.43801 4.03246 7.53032 4.14248 7.62258C4.25839 7.71978 4.34347 7.81329 4.52396 7.81329Z" fill="#AD1619"/>
<path fill-rule="evenodd" clip-rule="evenodd" d="M3.70496 14.1602H5.34296V14.9068C5.34296 14.9068 5.13821 14.8135 4.93346 14.8135C4.72871 14.8135 4.52396 14.9068 4.52396 14.9068C4.52396 14.9068 4.31921 14.8135 4.11446 14.8135C3.90971 14.8135 3.70496 14.9068 3.70496 14.9068V14.1602Z" fill="#005BBF"/>
<mask id="mask2_30_240" style="mask-type:luminance" maskUnits="userSpaceOnUse" x="3" y="14" width="3" height="1">
<path fill-rule="evenodd" clip-rule="evenodd" d="M3.70496 14.1602H5.34296V14.9068C5.34296 14.9068 5.13821 14.8135 4.93346 14.8135C4.72871 14.8135 4.52396 14.9068 4.52396 14.9068C4.52396 14.9068 4.31921 14.8135 4.11446 14.8135C3.90971 14.8135 3.70496 14.9068 3.70496 14.9068V14.1602Z" fill="white"/>
</mask>
<g mask="url(#mask2_30_240)">
<path d="M3.69017 14.7599L3.65442 14.6705C3.80195 14.6031 3.95001 14.5693 4.09829 14.5693C4.19409 14.5693 4.24412 14.583 4.32916 14.6219C4.40387 14.656 4.44259 14.6666 4.52429 14.6666C4.60598 14.6666 4.64471 14.656 4.71941 14.6219C4.80446 14.583 4.85448 14.5693 4.95028 14.5693C5.09856 14.5693 5.24662 14.6031 5.39416 14.6705L5.3584 14.7599C5.22194 14.6976 5.086 14.6666 4.95028 14.6666C4.86859 14.6666 4.82986 14.6772 4.75516 14.7113C4.67011 14.7501 4.62009 14.7638 4.52429 14.7638C4.42849 14.7638 4.37846 14.7501 4.29341 14.7113C4.21871 14.6772 4.17999 14.6666 4.09829 14.6666C3.96257 14.6666 3.82664 14.6976 3.69017 14.7599Z" fill="white"/>
<path d="M3.69017 14.4801L3.65442 14.3907C3.80195 14.3233 3.95001 14.2896 4.09829 14.2896C4.19409 14.2896 4.24412 14.3033 4.32916 14.3421C4.40387 14.3762 4.44259 14.3868 4.52429 14.3868C4.60598 14.3868 4.64471 14.3762 4.71941 14.3421C4.80446 14.3033 4.85448 14.2896 4.95028 14.2896C5.09856 14.2896 5.24662 14.3233 5.39416 14.3907L5.3584 14.4801C5.22194 14.4178 5.086 14.3868 4.95028 14.3868C4.86859 14.3868 4.82986 14.3974 4.75516 14.4315C4.67011 14.4703 4.62009 14.484 4.52429 14.484C4.42849 14.484 4.37846 14.4703 4.29341 14.4315C4.21871 14.3974 4.17999 14.3868 4.09829 14.3868C3.96257 14.3868 3.82664 14.4178 3.69017 14.4801Z" fill="white"/>
</g>
<rect x="12.9871" y="8.56006" width="0.909999" height="4.85333" fill="#F1F9FF"/>
<path fill-rule="evenodd" clip-rule="evenodd" d="M14.261 7.71973H12.623V8.18639H12.896V8.55969H13.988V8.18639H14.261V7.71973Z" fill="#C88A02"/>
<path fill-rule="evenodd" clip-rule="evenodd" d="M13.988 13.6932H14.261V14.1598H12.623V13.6932H12.896V13.3198H13.988V13.6932Z" fill="#C88A02"/>
<path fill-rule="evenodd" clip-rule="evenodd" d="M13.4421 7.81329C13.6401 7.81329 13.6602 7.73681 13.777 7.62258C13.8678 7.53388 14.0791 7.42387 14.0791 7.29995C14.0791 7.01645 13.7939 6.78662 13.4421 6.78662C13.0902 6.78662 12.8051 7.01645 12.8051 7.29995C12.8051 7.43801 12.9506 7.53032 13.0606 7.62258C13.1765 7.71978 13.2616 7.81329 13.4421 7.81329Z" fill="#AD1619"/>
<path fill-rule="evenodd" clip-rule="evenodd" d="M12.623 14.1602H14.261V14.9068C14.261 14.9068 14.0563 14.8135 13.8515 14.8135C13.6468 14.8135 13.442 14.9068 13.442 14.9068C13.442 14.9068 13.2373 14.8135 13.0325 14.8135C12.8278 14.8135 12.623 14.9068 12.623 14.9068V14.1602Z" fill="#005BBF"/>
<mask id="mask3_30_240" style="mask-type:luminance" maskUnits="userSpaceOnUse" x="12" y="14" width="3" height="1">
<path fill-rule="evenodd" clip-rule="evenodd" d="M12.623 14.1602H14.261V14.9068C14.261 14.9068 14.0563 14.8135 13.8515 14.8135C13.6468 14.8135 13.442 14.9068 13.442 14.9068C13.442 14.9068 13.2373 14.8135 13.0325 14.8135C12.8278 14.8135 12.623 14.9068 12.623 14.9068V14.1602Z" fill="white"/>
</mask>
<g mask="url(#mask3_30_240)">
<path d="M12.6083 14.7599L12.5725 14.6705C12.72 14.6031 12.8681 14.5693 13.0164 14.5693C13.1122 14.5693 13.1622 14.583 13.2473 14.6219C13.322 14.656 13.3607 14.6666 13.4424 14.6666C13.5241 14.6666 13.5628 14.656 13.6375 14.6219C13.7225 14.583 13.7726 14.5693 13.8684 14.5693C14.0167 14.5693 14.1647 14.6031 14.3122 14.6705L14.2765 14.7599C14.14 14.6976 14.0041 14.6666 13.8684 14.6666C13.7867 14.6666 13.748 14.6772 13.6733 14.7113C13.5882 14.7501 13.5382 14.7638 13.4424 14.7638C13.3466 14.7638 13.2965 14.7501 13.2115 14.7113C13.1368 14.6772 13.0981 14.6666 13.0164 14.6666C12.8807 14.6666 12.7447 14.6976 12.6083 14.7599Z" fill="white"/>
<path d="M12.6083 14.4801L12.5725 14.3907C12.72 14.3233 12.8681 14.2896 13.0164 14.2896C13.1122 14.2896 13.1622 14.3033 13.2473 14.3421C13.322 14.3762 13.3607 14.3868 13.4424 14.3868C13.5241 14.3868 13.5628 14.3762 13.6375 14.3421C13.7225 14.3033 13.7726 14.2896 13.8684 14.2896C14.0167 14.2896 14.1647 14.3233 14.3122 14.3907L14.2765 14.4801C14.14 14.4178 14.0041 14.3868 13.8684 14.3868C13.7867 14.3868 13.748 14.3974 13.6733 14.4315C13.5882 14.4703 13.5382 14.484 13.4424 14.484C13.3466 14.484 13.2965 14.4703 13.2115 14.4315C13.1368 14.3974 13.0981 14.3868 13.0164 14.3868C12.8807 14.3868 12.7447 14.4178 12.6083 14.4801Z" fill="white"/>
</g>
<path fill-rule="evenodd" clip-rule="evenodd" d="M13.5736 12.4797C13.5736 12.6768 13.6654 12.8624 13.8294 13.0664L14.3882 12.5937L14.4416 12.5769L14.4713 12.3381C14.5262 11.8968 14.3424 11.6524 13.9635 11.4757L13.9374 11.4639C13.8855 11.4405 13.7722 11.3895 13.7339 11.3707C13.654 11.3314 13.588 11.2924 13.5265 11.2465C13.4658 11.2012 13.4006 11.1585 13.3221 11.1118C13.7909 11.0345 14.0443 10.9775 14.2386 10.8916C14.7037 10.6861 14.7637 10.2088 14.3167 9.89304C13.7072 9.46255 12.0756 9.42382 11.3595 9.80303L11.6935 10.4665C12.0449 10.2804 12.8438 10.2453 13.4032 10.3408C13.3182 10.356 13.2227 10.3721 13.1158 10.3893C13.0655 10.3974 12.9191 10.4206 12.8427 10.4328L12.8425 10.4328L12.7962 10.4401C12.5727 10.4758 12.4203 10.521 12.3073 10.5999C12.0768 10.7609 12.0426 11.051 12.2071 11.265C12.2766 11.3554 12.3674 11.423 12.5049 11.5048C12.549 11.531 12.5965 11.5577 12.6602 11.5926L12.6935 11.6107L12.6939 11.6109C12.7331 11.6323 12.7942 11.6656 12.8168 11.678C12.948 11.7503 13.034 11.8024 13.0983 11.8503C13.1989 11.9254 13.3021 11.9864 13.4192 12.044C13.4822 12.075 13.6632 12.1559 13.6622 12.1554L13.6729 12.1604C13.6097 12.248 13.5736 12.3554 13.5736 12.4797ZM4.05274 13.0664C4.2168 12.8624 4.30855 12.6768 4.30855 12.4797C4.30855 12.3554 4.27249 12.248 4.2093 12.1604L4.21998 12.1554C4.219 12.1559 4.39997 12.075 4.46297 12.044C4.58009 11.9864 4.68328 11.9254 4.78388 11.8503C4.84811 11.8024 4.93417 11.7503 5.06536 11.678C5.08802 11.6655 5.14943 11.6321 5.18863 11.6108L5.22193 11.5926C5.28568 11.5577 5.33316 11.531 5.37727 11.5048C5.51472 11.423 5.60556 11.3554 5.67503 11.265C5.83958 11.051 5.80541 10.7609 5.57483 10.5999C5.46186 10.521 5.30941 10.4758 5.08595 10.4401L5.03965 10.4328C4.96329 10.4207 4.81671 10.3974 4.76635 10.3893C4.65942 10.3721 4.564 10.356 4.47893 10.3408C5.03839 10.2453 5.83727 10.2804 6.18867 10.4665L6.52266 9.80303C5.80656 9.42382 4.17496 9.46255 3.56547 9.89304C3.11844 10.2088 3.17843 10.6861 3.64354 10.8916C3.8379 10.9775 4.09126 11.0345 4.56011 11.1118C4.48154 11.1585 4.4164 11.2012 4.35571 11.2465C4.29415 11.2924 4.22821 11.3314 4.14822 11.3707C4.10996 11.3895 3.99665 11.4406 3.94474 11.4639L3.91864 11.4757C3.53979 11.6524 3.35592 11.8968 3.41086 12.3381L3.4406 12.5769L3.49395 12.5937L4.05274 13.0664ZM3.58443 12.4492L3.58328 12.4526L3.58416 12.4502L3.58443 12.4492Z" fill="#AD1619"/>
<path d="M4.8127 10.3335L5.0813 10.3905V10.8011C4.79522 11.0352 4.06897 11.4298 4.06897 11.4298V10.3335H4.8127Z" fill="#F1F9FF"/>
<path d="M13.2557 10.3335L12.9871 10.3905V10.8011C13.2731 11.0352 13.9994 11.4298 13.9994 11.4298V10.3335H13.2557Z" fill="#F1F9FF"/>
<path fill-rule="evenodd" clip-rule="evenodd" d="M12.0056 6.00482V5.86816C11.5375 5.52363 11.0473 5.35136 10.5351 5.35136C10.044 5.12846 9.54689 5.04194 9.04382 5.09179C9.04396 5.09023 9.04403 5.08943 9.04403 5.08943C8.28761 5.01352 7.52529 5.3514 7.52529 5.3514C6.75691 5.3514 6.05481 5.8682 6.05481 5.8682V6.00486L6.97263 6.9503C6.97263 6.9503 7.23098 7.86029 9.04029 7.64642V7.64869C9.04029 7.64869 10.2382 7.61516 10.3224 7.58644C10.3558 7.57505 10.3904 7.56468 10.4258 7.55408C10.6604 7.48382 10.9283 7.40362 11.0877 6.95026L12.0056 6.00482ZM9.04029 5.13365C9.01416 5.44845 8.86503 7.34584 9.04029 7.64002V5.13365Z" fill="#AD1619"/>
<path fill-rule="evenodd" clip-rule="evenodd" d="M6.75496 6.79111L6.75557 6.78824L6.10986 6.16517L6.17222 6.09719L6.77812 6.68186L6.79363 6.60871C6.89275 6.63082 6.96521 6.63894 7.00743 6.63434V6.50751L7.14175 6.58206C7.20781 6.61873 7.30242 6.62859 7.42703 6.60779C7.51855 6.59252 7.58031 6.4835 7.6005 6.25119L7.64127 5.78223L7.77801 6.23168C7.83989 6.43506 7.93428 6.52472 8.06867 6.52472C8.19993 6.52472 8.25269 6.47537 8.25851 6.35097L8.27503 5.99815L8.43059 6.31328C8.48664 6.42681 8.56392 6.47832 8.67382 6.47832C8.831 6.47832 8.93599 6.34393 8.93599 6.13305H8.93896H9.11799H9.12096C9.12096 6.34393 9.22596 6.47832 9.38313 6.47832C9.49303 6.47832 9.57032 6.42681 9.62636 6.31328L9.78193 5.99815L9.79844 6.35097C9.80427 6.47537 9.85703 6.52472 9.98828 6.52472C10.1227 6.52472 10.2171 6.43506 10.2789 6.23168L10.4157 5.78223L10.4565 6.25119C10.4766 6.4835 10.5384 6.59252 10.6299 6.60779C10.7545 6.62859 10.8491 6.61873 10.9152 6.58206L11.0495 6.50751V6.63434C11.0917 6.63894 11.1642 6.63082 11.2633 6.60871L11.2921 6.74443L11.9628 6.09719L12.0252 6.16517L11.1905 6.9706C11.0687 7.20062 11.0074 7.35245 11.0074 7.41551C11.0074 7.51173 10.7633 7.56884 10.287 7.6275C9.91384 7.67345 9.47344 7.7043 9.1132 7.7089V7.7095L9.06753 7.70935L9.02187 7.7095V7.7089C8.66162 7.7043 8.22122 7.67345 7.84805 7.6275C7.37172 7.56884 7.12765 7.51173 7.12765 7.41551C7.12765 7.40359 7.12546 7.3885 7.12108 7.37031C7.07303 7.30756 7.03926 7.20489 7.01679 7.11229C6.9957 7.069 6.97162 7.02173 6.94455 6.9706L6.75961 6.79215L6.75496 6.79111ZM11.2281 6.80614C11.0791 6.8332 10.9715 6.83047 10.9144 6.78278C10.8251 6.80944 10.7203 6.812 10.6007 6.79203C10.4729 6.77071 10.384 6.68356 10.3304 6.53897C10.2605 6.63033 10.1721 6.68671 10.0662 6.70492C10.6486 6.78962 11.0566 6.9087 11.0566 6.9087C11.0566 6.9087 11.0465 6.99712 11.0221 7.10109C11.048 7.04666 11.0786 6.98617 11.1141 6.91941L11.1228 6.90775L11.2281 6.80614ZM9.79162 6.66946C9.74093 6.64365 9.70046 6.60621 9.67121 6.55795C9.62776 6.5973 9.57836 6.62607 9.52348 6.64381C9.61511 6.651 9.70469 6.65968 9.79162 6.66946ZM9.2024 6.62566C9.13147 6.59207 9.07251 6.53825 9.02848 6.46928C8.98476 6.53776 8.92632 6.5913 8.85606 6.62495C8.89768 6.62367 8.93955 6.62278 8.98161 6.62229V6.62187L9.0181 6.62198L9.05459 6.62187V6.62229C9.10415 6.62286 9.15345 6.62401 9.2024 6.62566ZM7.00562 6.90138L6.92074 6.81948C7.0226 6.82984 7.09798 6.82002 7.14256 6.78278C7.23188 6.80944 7.33664 6.812 7.45626 6.79203C7.58401 6.77071 7.67298 6.68356 7.72651 6.53897C7.7944 6.62768 7.87972 6.68341 7.98157 6.70324C7.47947 6.77558 7.10485 6.87402 7.00562 6.90138ZM8.52952 6.64251C8.4413 6.64923 8.35492 6.65736 8.27093 6.66654C8.31901 6.64086 8.35758 6.60442 8.38575 6.55795C8.42814 6.59635 8.47622 6.62468 8.52952 6.64251ZM10.7682 7.41737C10.8319 7.44797 10.883 7.41745 10.9234 7.35887C10.9199 7.37503 10.9177 7.38965 10.9169 7.40274C10.9115 7.40632 10.9033 7.41064 10.8926 7.41527C10.8626 7.42819 10.8168 7.44196 10.7573 7.4559C10.6402 7.48328 10.4736 7.51051 10.2762 7.53483C9.89056 7.58231 9.43204 7.61356 9.06753 7.61601C8.70302 7.61356 8.2445 7.58231 7.8589 7.53483C7.66144 7.51051 7.49482 7.48328 7.37777 7.4559C7.32787 7.44422 7.28765 7.43266 7.25828 7.42162C7.2615 7.42036 7.26476 7.41895 7.26804 7.41737C7.46683 7.32197 8.78137 7.23244 9.0181 7.21699C9.25482 7.23244 10.5694 7.32197 10.7682 7.41737ZM11.0188 7.40028L11.0176 7.40166L11.0183 7.40072L11.0188 7.40028Z" fill="#C88A02"/>
<path fill-rule="evenodd" clip-rule="evenodd" d="M9.02874 4.45551C9.17951 4.45551 9.30174 4.33015 9.30174 4.17551C9.30174 4.02087 9.17951 3.89551 9.02874 3.89551C8.87796 3.89551 8.75574 4.02087 8.75574 4.17551C8.75574 4.33015 8.87796 4.45551 9.02874 4.45551Z" fill="#005BBF"/>
<path fill-rule="evenodd" clip-rule="evenodd" d="M10.4078 6.09993C10.3325 6.10398 10.2662 6.00294 10.2596 5.87425C10.253 5.74556 10.3087 5.63795 10.384 5.63391C10.4593 5.62986 10.5256 5.7309 10.5322 5.85959C10.5388 5.98828 10.4831 6.09589 10.4078 6.09993ZM11.2291 6.46434C11.34 6.52483 11.4587 6.51854 11.4941 6.45027L11.4959 6.44646C11.5068 6.45833 11.5198 6.46697 11.5345 6.4716C11.6066 6.49421 11.6949 6.41263 11.7316 6.2894C11.7683 6.16616 11.7397 6.04793 11.6676 6.02533C11.5955 6.00272 11.5073 6.0843 11.4705 6.20753C11.4616 6.23746 11.4565 6.26709 11.455 6.29513C11.4302 6.26595 11.3969 6.23873 11.3573 6.21711C11.2463 6.15661 11.1277 6.16291 11.0923 6.23118C11.0569 6.29945 11.1182 6.40384 11.2291 6.46434ZM6.76398 6.49295C6.65304 6.55345 6.53442 6.54715 6.49903 6.47888C6.49837 6.47761 6.49774 6.47632 6.49715 6.47502C6.48622 6.48688 6.47329 6.49551 6.45853 6.50013C6.38644 6.52274 6.29822 6.44116 6.26148 6.31793C6.22475 6.19469 6.25341 6.07646 6.32551 6.05386C6.3976 6.03125 6.48582 6.11283 6.52256 6.23606C6.53148 6.26602 6.53655 6.29568 6.53807 6.32374C6.56288 6.29456 6.59617 6.26734 6.63581 6.24572C6.74675 6.18522 6.86537 6.19152 6.90077 6.25979C6.93616 6.32806 6.87492 6.43245 6.76398 6.49295Z" fill="#C88A02"/><path fill-rule="evenodd" clip-rule="evenodd" d="M8.92683 3.39697H9.11642V3.5198H9.24028V3.71424H9.11642V4.10318H9.24028V4.29763H8.80103V4.10318H8.92683V3.71424H8.80103V3.5198H8.92683V3.39697Z" fill="#C88A02"/><rect x="8.89209" y="4.45312" width="0.364001" height="1.21333" fill="#C88A02"/>
<path d="M7.42677 4.65646L7.42518 4.74978C6.61828 4.73533 6.15544 4.85611 6.03795 5.09681C5.91648 5.34567 5.93907 5.64819 6.10927 6.00754L6.02742 6.04832C5.84582 5.66491 5.82102 5.33275 5.95658 5.05503C6.09611 4.76916 6.58574 4.6414 7.42677 4.65646Z" fill="white"/>
<path d="M7.5829 5.48396L7.53625 5.5641C7.36053 5.45649 7.27258 5.27284 7.27258 5.01976C7.27258 4.65602 7.45527 4.44273 7.85937 4.29676C8.11727 4.2036 8.46958 4.2418 8.91728 4.40828L8.88627 4.49602C8.45648 4.3362 8.12393 4.30015 7.8896 4.38479C7.51895 4.51868 7.36358 4.70007 7.36358 5.01976C7.36358 5.24185 7.43663 5.39439 7.5829 5.48396Z" fill="white"/>
<path d="M6.22397 5.86428L6.05225 5.92613C5.87408 5.40585 5.92496 5.0525 6.2294 4.90008C6.49766 4.76577 6.88862 4.71111 7.40423 4.73254L7.39686 4.91906C6.90869 4.89877 6.5455 4.94954 6.30924 5.06783C6.10916 5.168 6.07257 5.42215 6.22397 5.86428Z" fill="#C88A02"/>
<path d="M8.23012 4.53188C7.81401 4.53188 7.64313 4.63583 7.5455 4.94273C7.48329 5.13832 7.54363 5.30525 7.73927 5.46107L7.62764 5.6085C7.37435 5.40677 7.28505 5.1597 7.37248 4.88484C7.49689 4.49371 7.74101 4.34521 8.23012 4.34521C8.55069 4.34521 8.80042 4.4316 8.9743 4.6074L9.00142 4.63481V5.53478H8.81942V4.7146C8.68362 4.59362 8.48855 4.53188 8.23012 4.53188Z" fill="#C88A02"/>
<path d="M10.6024 4.74972L10.604 4.84304C11.4109 4.82859 11.8737 4.94937 11.9912 5.19008C12.1127 5.43893 12.0901 5.74145 11.9199 6.1008L12.0018 6.14159C12.1834 5.75817 12.2082 5.42601 12.0726 5.14829C11.9331 4.86243 11.4434 4.73466 10.6024 4.74972Z" fill="white"/>
<path d="M10.3174 5.50349L10.364 5.58363C10.5397 5.47602 10.6277 5.29237 10.6277 5.03929C10.6277 4.67555 10.445 4.46226 10.0409 4.31629C9.78299 4.22313 9.43069 4.26133 8.98298 4.42781L9.014 4.51555C9.44379 4.35574 9.77634 4.31968 10.0107 4.40432C10.3813 4.53821 10.5367 4.7196 10.5367 5.03929C10.5367 5.26138 10.4636 5.41392 10.3174 5.50349Z" fill="white"/>
<path d="M11.862 5.95754L12.0337 6.0194C12.2119 5.49911 12.161 5.14576 11.8565 4.99334C11.5883 4.85903 11.1973 4.80438 10.6817 4.82581L10.6891 5.01232C11.1773 4.99203 11.5404 5.04281 11.7767 5.16109C11.9768 5.26126 12.0134 5.51542 11.862 5.95754Z" fill="#C88A02"/>
<path d="M9.84532 4.54653C10.2614 4.54653 10.4323 4.65048 10.5299 4.95738C10.5922 5.15297 10.5318 5.3199 10.3362 5.47572L10.4478 5.62315C10.7011 5.42142 10.7904 5.17435 10.703 4.89948C10.5786 4.50836 10.3344 4.35986 9.84532 4.35986C9.52475 4.35986 9.27502 4.44624 9.10114 4.62205L9.07402 4.64946V5.54943H9.25602V4.72924C9.39182 4.60827 9.58689 4.54653 9.84532 4.54653Z" fill="#C88A02"/><path opacity="0.3" fill-rule="evenodd" clip-rule="evenodd" d="M6.07104 7.71973H11.986V13.1704C11.986 13.1704 11.5467 14.9997 9.02854 14.9997C6.51042 14.9997 6.07104 13.1222 6.07104 13.1222V7.71973Z" fill="#E1E5E8"/><mask id="mask4_30_240" style="mask-type:luminance" maskUnits="userSpaceOnUse" x="6" y="7" width="6" height="8">
<path fill-rule="evenodd" clip-rule="evenodd" d="M6.07104 7.71973H11.986V13.1704C11.986 13.1704 11.5467 14.9997 9.02854 14.9997C6.51042 14.9997 6.07104 13.1222 6.07104 13.1222V7.71973Z" fill="white"/></mask><g mask="url(#mask4_30_240)">
<rect x="6.07104" y="11.0796" width="3.003" height="3.64" fill="#FFC034"/>
<rect x="6.43506" y="11.2666" width="0.363999" height="3.45333" fill="#AD1619"/><rect x="7.70898" y="11.2666" width="0.363999" height="3.45333" fill="#AD1619"/><rect x="7.07202" y="11.2666" width="0.364" height="3.45333" fill="#AD1619"/>
<rect x="8.34607" y="11.2666" width="0.363998" height="3.45333" fill="#AD1619"/><rect x="6.07104" y="7.62646" width="3.003" height="3.54667" fill="#AD1619"/><rect x="8.98303" y="10.9863" width="3.003" height="3.54667" fill="#AD1619"/>
<rect x="8.98303" y="7.71973" width="3.185" height="3.45333" fill="#F1F9FF"/><path fill-rule="evenodd" clip-rule="evenodd" d="M7.345 7.99951H7.618V8.77383H7.80001V8.38671H8.07301V8.77383H8.34601V9.25778H8.07301V9.25782H8.073V10.1289H8.34601V10.6129H6.70801V10.1289H6.981V9.25778H6.70801V8.77383H6.89001V8.38671H7.16301V8.77383H7.345V7.99951Z" fill="#C88A02"/><path d="M10.5453 8.16213L10.7316 7.95752L11.1229 8.33237L10.9365 8.53699L10.5453 8.16213Z" fill="#C88A02"/>
<path fill-rule="evenodd" clip-rule="evenodd" d="M11.6676 13.4497V11.4062H9.39258V13.4325L9.39619 13.4483C9.51135 13.9516 9.90354 14.2063 10.5301 14.2063C11.156 14.2063 11.5481 13.9582 11.6638 13.4658L11.6676 13.4497ZM10.5301 13.9263C10.0274 13.9263 9.75284 13.7526 9.66557 13.3995V11.6863H11.3946V13.4158C11.3075 13.7573 11.033 13.9263 10.5301 13.9263Z" fill="#FFC034"/><path fill-rule="evenodd" clip-rule="evenodd" d="M10.624 11.5771H10.4344V12.5035L9.68708 11.6698L9.55311 11.7962L10.229 12.5502H9.61661V12.8302H10.087H10.2438L9.5531 13.6007L9.68708 13.727L10.4344 12.8933V13.9762H10.624V12.9908L11.284 13.727L11.418 13.6007L10.7273 12.8302H11.4983V12.5502H10.7421L11.418 11.7962L11.284 11.6698L10.624 12.4061V11.5771Z" fill="#FFC034"/><path fill-rule="evenodd" clip-rule="evenodd" d="M10.9547 14.5351C10.9547 14.5351 9.02728 14.6905 9.02728 13.4155C9.02728 13.4155 9.0089 14.5351 6.99634 14.5351V15.5416H10.9547V14.5351Z" fill="#F1F9FF"/><path fill-rule="evenodd" clip-rule="evenodd" d="M9.02857 11.8263C9.4055 11.8263 9.71107 11.492 9.71107 11.0797C9.71107 10.6673 9.4055 10.333 9.02857 10.333C8.65163 10.333 8.34607 10.6673 8.34607 11.0797C8.34607 11.492 8.65163 11.8263 9.02857 11.8263Z" fill="#005BBF" stroke="#AD1619" stroke-width="1.16667"/></g></g></g></svg>