<svg width="24" height="24" viewBox="0 0 24 24" fill="none" xmlns="http://www.w3.org/2000/svg"><path d="M10.8 7.2001C10.8 8.15488 10.4207 9.07055 9.7456 9.74568C9.07047 10.4208 8.15479 10.8001 7.20001 10.8001C6.24523 10.8001 5.32956 10.4208 4.65443 9.74568C3.9793 9.07055 3.60001 8.15488 3.60001 7.2001C3.60001 6.24532 3.9793 5.32964 4.65443 4.65451C5.32956 3.97938 6.24523 3.6001 7.20001 3.6001C8.15479 3.6001 9.07047 3.97938 9.7456 4.65451C10.4207 5.32964 10.8 6.24532 10.8 7.2001ZM20.4 7.2001C20.4 7.67286 20.3069 8.14099 20.126 8.57776C19.9451 9.01453 19.6799 9.41139 19.3456 9.74568C19.0113 10.08 18.6144 10.3451 18.1777 10.5261C17.7409 10.707 17.2728 10.8001 16.8 10.8001C16.3273 10.8001 15.8591 10.707 15.4224 10.5261C14.9856 10.3451 14.5887 10.08 14.2544 9.74568C13.9201 9.41139 13.655 9.01453 13.474 8.57776C13.2931 8.14099 13.2 7.67286 13.2 7.2001C13.2 6.24532 13.5793 5.32964 14.2544 4.65451C14.9296 3.97938 15.8452 3.6001 16.8 3.6001C17.7548 3.6001 18.6705 3.97938 19.3456 4.65451C20.0207 5.32964 20.4 6.24532 20.4 7.2001ZM15.516 20.4001C15.5712 20.0077 15.6 19.6081 15.6 19.2001C15.6028 17.3147 14.9685 15.4837 13.8 14.0041C14.7121 13.4775 15.7468 13.2003 16.8 13.2003C17.8532 13.2002 18.8878 13.4775 19.7999 14.0041C20.7121 14.5307 21.4695 15.2881 21.9961 16.2002C22.5227 17.1122 22.8 18.1469 22.8 19.2001V20.4001H15.516ZM7.20001 13.2001C8.79131 13.2001 10.3174 13.8322 11.4427 14.9575C12.5679 16.0827 13.2 17.6088 13.2 19.2001V20.4001H1.20001V19.2001C1.20001 17.6088 1.83215 16.0827 2.95737 14.9575C4.08259 13.8322 5.60871 13.2001 7.20001 13.2001Z" fill="white"/></svg>