<svg width="40" height="40" viewBox="0 0 40 40" fill="none" xmlns="http://www.w3.org/2000/svg"><g opacity="0.1"><path d="M20 2.5C16.5388 2.5 13.1554 3.52636 10.2775 5.44928C7.39967 7.37221 5.15665 10.1053 3.83212 13.303C2.50758 16.5007 2.16102 20.0194 2.83627 23.4141C3.51151 26.8087 5.17822 29.9269 7.62564 32.3744C10.0731 34.8218 13.1913 36.4885 16.5859 37.1637C19.9806 37.839 23.4993 37.4924 26.697 36.1679C29.8947 34.8434 32.6278 32.6003 34.5507 29.7225C36.4737 26.8446 37.5 23.4612 37.5 20C37.5 15.3587 35.6563 10.9075 32.3744 7.62563C29.0925 4.34374 24.6413 2.5 20 2.5ZM14.375 13.75C14.9931 13.75 15.5973 13.9333 16.1112 14.2767C16.6251 14.62 17.0256 15.1081 17.2621 15.6791C17.4987 16.2501 17.5605 16.8785 17.44 17.4847C17.3194 18.0908 17.0218 18.6477 16.5847 19.0847C16.1477 19.5217 15.5909 19.8194 14.9847 19.94C14.3785 20.0605 13.7501 19.9986 13.1791 19.7621C12.6081 19.5256 12.12 19.1251 11.7767 18.6112C11.4333 18.0973 11.25 17.4931 11.25 16.875C11.2467 16.4637 11.3252 16.0558 11.4811 15.6752C11.637 15.2945 11.867 14.9487 12.1579 14.6579C12.4487 14.367 12.7945 14.137 13.1752 13.9811C13.5558 13.8252 13.9637 13.7467 14.375 13.75ZM20 30C18.2322 30.0019 16.4946 29.5414 14.9597 28.6643C13.4248 27.7872 12.1459 26.524 11.25 25H28.75C27.8541 26.524 26.5752 27.7872 25.0403 28.6643C23.5054 29.5414 21.7678 30.0019 20 30ZM25.625 20C25.0069 20 24.4028 19.8167 23.8889 19.4733C23.3749 19.13 22.9744 18.6419 22.7379 18.0709C22.5014 17.4999 22.4395 16.8715 22.5601 16.2653C22.6806 15.6592 22.9783 15.1023 23.4153 14.6653C23.8523 14.2283 24.4092 13.9306 25.0154 13.81C25.6215 13.6895 26.2499 13.7514 26.8209 13.9879C27.3919 14.2244 27.88 14.6249 28.2234 15.1388C28.5667 15.6527 28.75 16.2569 28.75 16.875C28.7533 17.2863 28.6748 17.6942 28.5189 18.0748C28.363 18.4555 28.133 18.8013 27.8421 19.0921C27.5513 19.383 27.2055 19.613 26.8248 19.7689C26.4442 19.9248 26.0363 20.0033 25.625 20Z" fill="#4B164C"/></g></svg>