<svg width="24" height="24" viewBox="0 0 24 24" fill="none" xmlns="http://www.w3.org/2000/svg"><path fill-rule="evenodd" clip-rule="evenodd" d="M5.15151 5.1515C5.37655 4.92654 5.68172 4.80016 5.99991 4.80016C6.31811 4.80016 6.62328 4.92654 6.84831 5.1515L11.9999 10.3031L17.1515 5.1515C17.2622 5.03689 17.3946 4.94547 17.541 4.88258C17.6874 4.81969 17.8449 4.78659 18.0042 4.7852C18.1636 4.78382 18.3216 4.81418 18.4691 4.87452C18.6165 4.93485 18.7505 5.02396 18.8632 5.13663C18.9759 5.2493 19.065 5.38328 19.1253 5.53076C19.1856 5.67823 19.216 5.83625 19.2146 5.99558C19.2132 6.15492 19.1801 6.31238 19.1172 6.45879C19.0543 6.60519 18.9629 6.73761 18.8483 6.8483L13.6967 11.9999L18.8483 17.1515C19.0669 17.3778 19.1879 17.6809 19.1851 17.9956C19.1824 18.3102 19.0562 18.6112 18.8337 18.8337C18.6112 19.0562 18.3102 19.1824 17.9956 19.1851C17.681 19.1878 17.3778 19.0669 17.1515 18.8483L11.9999 13.6967L6.84831 18.8483C6.62199 19.0669 6.31887 19.1878 6.00423 19.1851C5.6896 19.1824 5.38862 19.0562 5.16613 18.8337C4.94364 18.6112 4.81744 18.3102 4.81471 17.9956C4.81197 17.6809 4.93293 17.3778 5.15151 17.1515L10.3031 11.9999L5.15151 6.8483C4.92655 6.62327 4.80017 6.3181 4.80017 5.9999C4.80017 5.68171 4.92655 5.37654 5.15151 5.1515Z" fill="#22172A"/></svg>