<svg width="375" height="375" viewBox="0 0 375 375" fill="none" xmlns="http://www.w3.org/2000/svg"><g opacity="0.2"><path d="M301.044 38.2581L299.624 40.1153C267.179 15.4037 228.421 2.33775 187.521 2.33775C124.162 2.33775 65.8715 34.2159 31.5919 87.6157L29.6255 86.3484C64.3202 32.2713 123.354 -0.000137329 187.521 -0.000137329C228.924 -0.000137329 268.184 13.2406 301.044 38.2581Z" fill="white"/><path d="M375 187.489C375 290.88 290.885 375 187.5 375C84.115 375 0 290.88 0 187.489H2.33772C2.33772 289.591 85.404 372.64 187.478 372.64C289.574 372.64 372.619 289.569 372.619 187.489C372.619 156.638 364.884 126.092 350.246 99.1739L352.3 98.0596C367.178 125.328 375 156.266 375 187.489Z" fill="white"/><path d="M331.828 276.219C300.717 326.735 246.752 356.887 187.5 356.887V352.189C245.113 352.189 297.571 322.868 327.83 273.75L331.828 276.219Z" fill="white"/><path d="M356.909 187.487C356.909 206.059 353.916 224.303 348.039 241.739L343.604 240.232C349.328 223.276 352.234 205.535 352.234 187.465C352.234 102.625 288.678 32.1604 204.388 23.6173L204.869 18.9416C291.518 27.7687 356.909 100.221 356.909 187.487Z" fill="white"/><path d="M161.195 24.8861C122.983 31.0258 87.9604 50.6465 62.5948 80.1649C36.9452 109.989 22.8313 148.116 22.8313 187.489C22.8313 219.28 31.8983 250.131 49.0708 276.721C69.0836 307.704 99.2339 331.345 133.972 343.296L132.443 347.732C96.7214 335.452 65.719 311.134 45.1381 279.278C27.4849 251.922 18.1558 220.197 18.1558 187.511C18.1558 147.002 32.6847 107.804 59.0553 77.1279C85.1419 46.7792 121.169 26.5903 160.474 20.2759L161.195 24.8861Z" fill="white"/><path d="M309.849 187.488C309.849 254.959 254.967 309.845 187.5 309.845C160.19 309.845 134.366 301.039 112.824 284.412L115.686 280.698C136.419 296.691 161.239 305.147 187.5 305.147C252.367 305.147 305.152 252.359 305.152 187.488C305.152 175.974 303.492 164.59 300.214 153.687L304.715 152.333C308.145 163.694 309.849 175.537 309.849 187.488Z" fill="white"/><path d="M277.732 104.854L274.28 108.022C252.039 83.7473 220.425 69.8293 187.522 69.8293C164.363 69.8293 141.947 76.5589 122.698 89.2752L120.12 85.3642C140.133 72.1235 163.445 65.1317 187.543 65.1317C221.736 65.1535 254.617 79.6178 277.732 104.854Z" fill="white"/><path d="M95.3881 114.294C78.6743 135.291 69.8477 160.615 69.8477 187.489C69.8477 211.065 76.7954 233.81 89.9479 253.278L86.059 255.9C72.3821 235.667 65.1723 212.004 65.1723 187.489C65.1723 159.522 74.3485 133.194 91.7395 111.366L95.3881 114.294Z" fill="white"/><path d="M288.831 187.489C288.831 203.963 284.789 220.328 277.143 234.792L275.067 233.7C282.539 219.563 286.494 203.592 286.494 187.51C286.494 143.091 256.627 103.849 213.849 92.0726L214.482 89.8221C258.266 101.839 288.831 142.02 288.831 187.489Z" fill="white"/><path d="M259.184 259.131C240.045 278.271 214.592 288.824 187.522 288.824C131.657 288.824 86.1909 243.377 86.1909 187.487C86.1909 131.618 131.657 86.1497 187.522 86.1497V88.4876C132.946 88.4876 88.5505 132.885 88.5505 187.465C88.5505 242.045 132.946 286.442 187.522 286.442C213.958 286.442 238.821 276.151 257.523 257.427L259.184 259.131Z" fill="white"/><path d="M250.531 187.489C250.531 222.252 222.26 250.525 187.499 250.525C152.739 250.525 124.468 222.252 124.468 187.489H129.165C129.165 219.652 155.339 245.827 187.499 245.827C219.66 245.827 245.834 219.652 245.834 187.489C245.834 155.327 219.66 129.152 187.499 129.152V124.454C222.26 124.476 250.531 152.749 250.531 187.489Z" fill="white"/><path d="M218.83 187.487C218.83 204.77 204.782 218.819 187.5 218.819V216.481C203.471 216.481 216.47 203.481 216.47 187.509C216.47 171.537 203.471 158.537 187.5 158.537C171.529 158.537 158.529 171.537 158.529 187.509C158.529 196.38 162.506 204.639 169.453 210.189L167.99 212.024C160.474 206.037 156.17 197.101 156.17 187.509C156.17 170.226 170.218 156.177 187.5 156.177C204.782 156.177 218.83 170.226 218.83 187.487Z" fill="white"/></g></svg>