<svg width="20" height="20" viewBox="0 0 20 20" fill="none" xmlns="http://www.w3.org/2000/svg"><path d="M17.5 9.58335C17.5028 10.6832 17.2459 11.7682 16.75 12.75C16.162 13.9265 15.2581 14.916 14.1395 15.6077C13.0209 16.2995 11.7319 16.6662 10.4167 16.6667C9.31677 16.6695 8.23175 16.4126 7.24999 15.9167L2.5 17.5L4.08333 12.75C3.58744 11.7682 3.33046 10.6832 3.33333 9.58335C3.33384 8.26815 3.70051 6.97906 4.39226 5.86048C5.08402 4.74189 6.07354 3.83799 7.24999 3.25002C8.23175 2.75413 9.31677 2.49716 10.4167 2.50002H10.8333C12.5703 2.59585 14.2109 3.32899 15.4409 4.55907C16.671 5.78915 17.4042 7.42973 17.5 9.16668V9.58335Z" fill="white" stroke="white" stroke-width="1.5" stroke-linecap="round" stroke-linejoin="round"/></svg>