<svg width="28" height="28" viewBox="0 0 28 28" fill="none" xmlns="http://www.w3.org/2000/svg"><path fill-rule="evenodd" clip-rule="evenodd" d="M4.44087 7.24074C5.49103 6.1909 6.91515 5.60114 8.40007 5.60114C9.88499 5.60114 11.3091 6.1909 12.3593 7.24074L14.0001 8.88014L15.6409 7.24074C16.1575 6.70588 16.7754 6.27926 17.4586 5.98577C18.1418 5.69228 18.8767 5.5378 19.6202 5.53134C20.3638 5.52488 21.1012 5.66657 21.7894 5.94814C22.4776 6.22971 23.1029 6.64553 23.6287 7.17133C24.1545 7.69713 24.5703 8.32238 24.8519 9.0106C25.1334 9.69882 25.2751 10.4362 25.2687 11.1798C25.2622 11.9234 25.1077 12.6582 24.8142 13.3414C24.5208 14.0246 24.0941 14.6426 23.5593 15.1591L14.0001 24.7197L4.44087 15.1591C3.39104 14.109 2.80127 12.6849 2.80127 11.1999C2.80127 9.71502 3.39104 8.2909 4.44087 7.24074Z" fill="white"/></svg>