<svg width="32" height="32" viewBox="0 0 32 32" fill="none" xmlns="http://www.w3.org/2000/svg"><path fill-rule="evenodd" clip-rule="evenodd" d="M5.07537 8.27513C6.27555 7.07532 7.90312 6.4013 9.60017 6.4013C11.2972 6.4013 12.9248 7.07532 14.125 8.27513L16.0002 10.1487L17.8754 8.27513C18.4658 7.66387 19.172 7.1763 19.9528 6.84088C20.7336 6.50547 21.5734 6.32892 22.4232 6.32153C23.273 6.31415 24.1157 6.47608 24.9023 6.79788C25.6888 7.11967 26.4034 7.59489 27.0043 8.19581C27.6052 8.79672 28.0804 9.51129 28.4022 10.2978C28.724 11.0844 28.886 11.9271 28.8786 12.7769C28.8712 13.6267 28.6946 14.4665 28.3592 15.2473C28.0238 16.0281 27.5362 16.7344 26.925 17.3247L16.0002 28.2511L5.07537 17.3247C3.87556 16.1246 3.20154 14.497 3.20154 12.7999C3.20154 11.1029 3.87556 9.47531 5.07537 8.27513Z" fill="white"/></svg>