<svg width="185" height="40" viewBox="0 0 185 40" fill="none" xmlns="http://www.w3.org/2000/svg"><rect y="17.5386" width="3" height="4.92308" rx="1.5" fill="#DD88CF"/><rect x="7" y="17.5386" width="3" height="4.92308" rx="1.5" fill="#DD88CF"/><rect x="14" y="14.769" width="3" height="10.4615" rx="1.5" fill="#DD88CF"/><rect x="21" y="12.6152" width="3" height="14.7692" rx="1.5" fill="#DD88CF"/><rect x="28" y="17.5386" width="3" height="4.92308" rx="1.5" fill="#DD88CF"/><rect x="35" y="12.3076" width="3" height="15.3846" rx="1.5" fill="#DD88CF"/><rect x="42" y="15.0771" width="3" height="9.84615" rx="1.5" fill="#DD88CF"/><rect x="49" y="6.46143" width="3" height="27.0769" rx="1.5" fill="#DD88CF"/><rect x="56" y="12.6152" width="3" height="14.7692" rx="1.5" fill="#DD88CF"/><rect x="63" y="0.307617" width="3" height="39.3846" rx="1.5" fill="#DD88CF"/><rect x="70" y="15.0771" width="3" height="9.84615" rx="1.5" fill="#DD88CF"/><rect x="77" y="10.1538" width="3" height="19.6923" rx="1.5" fill="#DD88CF"/><rect x="84" y="15.0771" width="3" height="9.84615" rx="1.5" fill="#DD88CF"/><rect x="91" y="7.38477" width="3" height="25.2308" rx="1.5" fill="#DD88CF"/><rect x="98" width="3" height="40" rx="1.5" fill="#DD88CF"/><rect x="105" y="7.69238" width="3" height="24.6154" rx="1.5" fill="#DD88CF"/><rect x="112" y="17.5386" width="3" height="4.92308" rx="1.5" fill="#DD88CF"/><rect x="119" y="7.69238" width="3" height="24.6154" rx="1.5" fill="#DD88CF"/><rect x="126" y="4.92285" width="3" height="30.1538" rx="1.5" fill="#DD88CF"/><rect x="133" y="17.5386" width="3" height="4.92308" rx="1.5" fill="#DD88CF"/><rect x="140" y="7.69238" width="3" height="24.6154" rx="1.5" fill="#DD88CF"/><rect x="147" y="15.0771" width="3" height="9.84615" rx="1.5" fill="#DD88CF"/><rect x="154" y="0.307617" width="3" height="39.3846" rx="1.5" fill="#DD88CF"/><rect x="161" y="7.69238" width="3" height="24.6154" rx="1.5" fill="#DD88CF"/><rect x="168" y="10.1538" width="3" height="19.6923" rx="1.5" fill="#DD88CF"/><rect x="175" y="17.5386" width="3" height="4.92308" rx="1.5" fill="#DD88CF"/><rect x="182" y="17.5386" width="3" height="4.92308" rx="1.5" fill="#DD88CF"/></svg>