<svg width="28" height="28" viewBox="0 0 28 28" fill="none" xmlns="http://www.w3.org/2000/svg"><path fill-rule="evenodd" clip-rule="evenodd" d="M6.01 6.01029C6.27254 5.74783 6.62857 5.60039 6.9998 5.60039C7.37103 5.60039 7.72706 5.74783 7.9896 6.01029L13.9998 12.0205L20.01 6.01029C20.1391 5.87658 20.2936 5.76992 20.4644 5.69655C20.6352 5.62317 20.8189 5.58455 21.0048 5.58294C21.1907 5.58132 21.3751 5.61675 21.5471 5.68714C21.7192 5.75753 21.8755 5.86149 22.007 5.99294C22.1384 6.12439 22.2424 6.2807 22.3127 6.45275C22.3831 6.62481 22.4186 6.80916 22.417 6.99505C22.4153 7.18094 22.3767 7.36465 22.3033 7.53546C22.23 7.70626 22.1233 7.86074 21.9896 7.98989L15.9794 14.0001L21.9896 20.0103C22.2446 20.2743 22.3857 20.628 22.3825 20.9951C22.3794 21.3621 22.2321 21.7133 21.9725 21.9728C21.713 22.2324 21.3618 22.3796 20.9948 22.3828C20.6277 22.386 20.274 22.2449 20.01 21.9899L13.9998 15.9797L7.9896 21.9899C7.72556 22.2449 7.37191 22.386 7.00484 22.3828C6.63776 22.3796 6.28662 22.2324 6.02705 21.9728C5.76748 21.7133 5.62024 21.3621 5.61705 20.9951C5.61386 20.628 5.75498 20.2743 6.01 20.0103L12.0202 14.0001L6.01 7.98989C5.74754 7.72735 5.6001 7.37132 5.6001 7.00009C5.6001 6.62886 5.74754 6.27283 6.01 6.01029Z" fill="#4B164C"/></svg>