<svg width="20" height="20" viewBox="0 0 20 20" fill="none" xmlns="http://www.w3.org/2000/svg"><g clip-path="url(#clip0_60_5649)"><path d="M16.25 11.3101L9.99996 17.5001L3.74997 11.3101C3.33772 10.9089 3.013 10.4267 2.79626 9.89393C2.57951 9.36111 2.47543 8.78919 2.49058 8.21418C2.50573 7.63916 2.63977 7.07351 2.88426 6.55285C3.12876 6.03218 3.47841 5.56778 3.9112 5.18888C4.344 4.80999 4.85055 4.52481 5.39898 4.3513C5.9474 4.17779 6.5258 4.11972 7.09777 4.18073C7.66974 4.24175 8.22288 4.42053 8.72236 4.70582C9.22184 4.99111 9.65684 5.37673 9.99996 5.8384C10.3446 5.38008 10.7801 4.99783 11.2792 4.71557C11.7784 4.43331 12.3304 4.25711 12.9007 4.198C13.4711 4.13889 14.0475 4.19815 14.5939 4.37206C15.1404 4.54597 15.645 4.83079 16.0763 5.2087C16.5075 5.58661 16.8562 6.04947 17.1003 6.56831C17.3445 7.08715 17.4789 7.6508 17.4952 8.22399C17.5115 8.79718 17.4093 9.36756 17.1951 9.89944C16.9808 10.4313 16.6591 10.9133 16.25 11.3151" stroke="#DD88CF" stroke-width="2" stroke-linecap="round" stroke-linejoin="round"/></g><defs><clipPath id="clip0_60_5649"><rect width="20" height="20" fill="white"/></clipPath></defs></svg>