<svg width="36" height="36" viewBox="0 0 36 36" fill="none" xmlns="http://www.w3.org/2000/svg"><g clip-path="url(#clip0_0_543)"><path fill-rule="evenodd" clip-rule="evenodd" d="M7.72729 13.2099C7.88472 12.8724 8.16974 12.6113 8.51967 12.4839C8.8696 12.3566 9.25579 12.3734 9.59331 12.5307L17.3207 16.1341L20.9241 8.40667C20.9999 8.23632 21.109 8.08278 21.2448 7.95502C21.3806 7.82725 21.5405 7.72782 21.7152 7.66252C21.8899 7.59722 22.0758 7.56736 22.2621 7.57468C22.4485 7.58201 22.6315 7.62637 22.8005 7.70518C22.9695 7.78399 23.1211 7.89567 23.2465 8.0337C23.3719 8.17173 23.4685 8.33335 23.5308 8.50913C23.593 8.68491 23.6197 8.87133 23.6091 9.05751C23.5985 9.24369 23.551 9.4259 23.4693 9.59352L19.8659 17.3209L27.5933 20.9243C27.9243 21.0857 28.1786 21.3706 28.3016 21.7177C28.4245 22.0648 28.4062 22.4463 28.2506 22.7801C28.095 23.1138 27.8145 23.3731 27.4696 23.502C27.1246 23.631 26.7429 23.6193 26.4065 23.4695L18.6791 19.8661L15.0757 27.5935C14.9143 27.9245 14.6294 28.1789 14.2823 28.3018C13.9352 28.4247 13.5537 28.4064 13.2199 28.2508C12.8862 28.0952 12.6269 27.8147 12.498 27.4698C12.369 27.1248 12.3807 26.7431 12.5305 26.4067L16.1339 18.6793L8.40647 15.0759C8.06899 14.9185 7.80786 14.6335 7.68049 14.2835C7.55313 13.9336 7.56996 13.5474 7.72729 13.2099Z" fill="#4B164C"/></g><defs><clipPath id="clip0_0_543"><rect width="28" height="28" fill="white" transform="translate(0 9.60644) scale(1.00312) rotate(-20)"/></clipPath></defs></svg>