<svg width="31" height="31" viewBox="0 0 31 31" fill="none" xmlns="http://www.w3.org/2000/svg"><g clip-path="url(#clip0_42_2350)"><path d="M16.5305 6.54544L8.95461 9.30285C6.86257 10.0643 5.78391 12.3775 6.54535 14.4695L9.30276 22.0454C10.0642 24.1375 12.3774 25.2161 14.4694 24.4547L22.0454 21.6973C24.1374 20.9358 25.216 18.6227 24.4546 16.5306L21.6972 8.9547C20.9358 6.86266 18.6226 5.784 16.5305 6.54544Z" stroke="white" stroke-width="1.5" stroke-linecap="round" stroke-linejoin="round"/><path d="M16.534 18.341C18.103 17.7699 18.912 16.035 18.341 14.466C17.7699 12.8969 16.035 12.0879 14.466 12.659C12.8969 13.2301 12.0879 14.965 12.659 16.534C13.2301 18.103 14.965 18.912 16.534 18.341Z" stroke="white" stroke-width="1.5" stroke-linecap="round" stroke-linejoin="round"/><path d="M18.2104 9.68757L18.2107 9.68852" stroke="white" stroke-width="1.5" stroke-linecap="round" stroke-linejoin="round"/></g><defs><clipPath id="clip0_42_2350"><rect width="24" height="24" fill="white" transform="translate(0 8.27224) scale(1.00777) rotate(-20)"/></clipPath></defs></svg>