<svg width="28" height="28" viewBox="0 0 28 28" fill="none" xmlns="http://www.w3.org/2000/svg">
<g clip-path="url(#clip0_1141_644)">
<g clip-path="url(#clip1_1141_644)">
<path d="M20.4871 24.5001C20.3005 24.5008 20.1164 24.4568 19.9504 24.3717L14.0004 21.2567L8.05039 24.3717C7.85719 24.4733 7.63935 24.5187 7.42165 24.5027C7.20395 24.4866 6.99512 24.4098 6.81889 24.281C6.64267 24.1522 6.50612 23.9765 6.42478 23.7739C6.34343 23.5713 6.32055 23.35 6.35873 23.1351L7.52539 16.5667L2.71873 11.9001C2.56876 11.7504 2.46238 11.5628 2.41099 11.3572C2.35961 11.1517 2.36516 10.936 2.42706 10.7334C2.49468 10.5261 2.61907 10.3418 2.7861 10.2016C2.95314 10.0614 3.15614 9.97077 3.37206 9.94008L10.0221 8.97174L12.9504 2.98674C13.0459 2.78949 13.1951 2.62314 13.3808 2.50674C13.5665 2.39035 13.7812 2.32861 14.0004 2.32861C14.2196 2.32861 14.4343 2.39035 14.62 2.50674C14.8057 2.62314 14.9549 2.78949 15.0504 2.98674L18.0137 8.96008L24.6637 9.92841C24.8797 9.9591 25.0827 10.0497 25.2497 10.1899C25.4167 10.3302 25.5411 10.5144 25.6087 10.7217C25.6706 10.9244 25.6762 11.14 25.6248 11.3456C25.5734 11.5511 25.467 11.7388 25.3171 11.8884L20.5104 16.5551L21.6771 23.1234C21.7187 23.3421 21.6969 23.5682 21.6142 23.7749C21.5315 23.9817 21.3914 24.1604 21.2104 24.2901C20.9991 24.4381 20.7448 24.512 20.4871 24.5001V24.5001Z" fill="white"/>
</g>
</g>
<defs>
<clipPath id="clip0_1141_644">
<rect width="28" height="28" fill="white"/>
</clipPath>
<clipPath id="clip1_1141_644">
<rect width="28" height="28" fill="white"/>
</clipPath>
</defs>
</svg>
