<svg width="24" height="24" viewBox="0 0 24 24" fill="none" xmlns="http://www.w3.org/2000/svg">
<g clip-path="url(#clip0_1180_2534)">
<path d="M14.9999 6.99996L8.49995 13.5C8.10212 13.8978 7.87863 14.4374 7.87863 15C7.87863 15.5626 8.10212 16.1021 8.49995 16.5C8.89777 16.8978 9.43734 17.1213 9.99995 17.1213C10.5626 17.1213 11.1021 16.8978 11.4999 16.5L17.9999 9.99996C18.7956 9.20432 19.2426 8.12518 19.2426 6.99996C19.2426 5.87475 18.7956 4.79561 17.9999 3.99996C17.2043 3.20432 16.1252 2.75732 14.9999 2.75732C13.8747 2.75732 12.7956 3.20432 11.9999 3.99996L5.49995 10.5C4.30647 11.6934 3.63599 13.3121 3.63599 15C3.63599 16.6878 4.30647 18.3065 5.49995 19.5C6.69342 20.6934 8.31212 21.3639 9.99995 21.3639C11.6878 21.3639 13.3065 20.6934 14.4999 19.5L20.9999 13" stroke="#4B164C" stroke-width="2" stroke-linecap="round" stroke-linejoin="round"/>
</g>
<defs>
<clipPath id="clip0_1180_2534">
<rect width="24" height="24" fill="white"/>
</clipPath>
</defs>
</svg>
