<svg width="28" height="28" viewBox="0 0 28 28" fill="none" xmlns="http://www.w3.org/2000/svg">
<path fill-rule="evenodd" clip-rule="evenodd" d="M6.01012 6.01029C6.27266 5.74783 6.62869 5.60039 6.99992 5.60039C7.37115 5.60039 7.72718 5.74783 7.98972 6.01029L13.9999 12.0205L20.0101 6.01029C20.1393 5.87658 20.2937 5.76992 20.4646 5.69655C20.6354 5.62317 20.8191 5.58455 21.005 5.58294C21.1909 5.58132 21.3752 5.61675 21.5473 5.68714C21.7193 5.75753 21.8756 5.86149 22.0071 5.99294C22.1385 6.12439 22.2425 6.2807 22.3129 6.45275C22.3833 6.62481 22.4187 6.80916 22.4171 6.99505C22.4155 7.18094 22.3768 7.36465 22.3035 7.53546C22.2301 7.70626 22.1234 7.86074 21.9897 7.98989L15.9795 14.0001L21.9897 20.0103C22.2447 20.2743 22.3859 20.628 22.3827 20.9951C22.3795 21.3621 22.2322 21.7133 21.9727 21.9728C21.7131 22.2324 21.362 22.3796 20.9949 22.3828C20.6278 22.386 20.2742 22.2449 20.0101 21.9899L13.9999 15.9797L7.98972 21.9899C7.72568 22.2449 7.37203 22.386 7.00496 22.3828C6.63788 22.3796 6.28675 22.2324 6.02717 21.9728C5.7676 21.7133 5.62037 21.3621 5.61718 20.9951C5.61399 20.628 5.7551 20.2743 6.01012 20.0103L12.0203 14.0001L6.01012 7.98989C5.74766 7.72735 5.60022 7.37132 5.60022 7.00009C5.60022 6.62886 5.74766 6.27283 6.01012 6.01029Z" fill="#4B164C"/>
</svg>
